<?xml version="1.0" encoding="UTF-8" standalone="no"?>
<!DOCTYPE svg PUBLIC "-//W3C//DTD SVG 1.1//EN" "http://www.w3.org/Graphics/SVG/1.1/DTD/svg11.dtd">
<svg width="100%" height="100%" viewBox="0 0 400 400" version="1.1" xmlns="http://www.w3.org/2000/svg" xmlns:xlink="http://www.w3.org/1999/xlink" xml:space="preserve" xmlns:serif="http://www.serif.com/" style="fill-rule:evenodd;clip-rule:evenodd;stroke-linejoin:round;stroke-miterlimit:2;">
    <g transform="matrix(3.83791,0,0,3.55899,-533.474,-319.91)">
        <path d="M141.755,104.575C141.574,103.944 141.476,103.274 141.476,102.579C141.476,98.857 144.278,95.836 147.73,95.836C158.524,95.836 169.139,93.63 179.918,92.833C190.498,92.05 201.518,92.391 212.064,92.545C215.857,92.601 221.368,92.25 226.401,92.768C230.689,93.21 234.662,94.323 237.577,96.277C238.521,96.91 239.547,97.939 240.185,99.653C240.415,100.27 240.645,101.178 240.718,102.277C240.804,103.567 240.628,105.662 240.614,105.939C240.456,109.061 240.187,112.177 239.992,115.298C239.248,127.238 239.37,139.157 239.37,151.117C239.37,155.771 239.438,160.426 239.369,165.08C239.324,168.094 239.202,171.107 239.022,174.116C238.864,176.763 238.549,179.398 238.364,182.043C238.218,184.129 238.231,186.226 238.028,188.307C237.909,189.533 237.583,190.731 237.39,191.948C236.998,194.418 236.221,195.869 235.471,196.846C234.194,198.51 232.64,199.465 230.421,199.753C229.623,199.856 228.523,199.772 226.974,199.782C225.989,199.788 225.005,199.823 224.02,199.823C222.867,199.823 221.713,199.835 220.561,199.774C218.189,199.647 215.837,199.239 213.465,199.128C209.447,198.941 205.426,198.859 201.406,198.728C197.047,198.585 192.684,198.513 188.327,198.307C178.015,197.82 167.714,196.657 157.393,196.391C155.873,196.351 154.266,196.927 152.727,197.092C150.388,197.342 148.147,197.086 146.079,196.052C144.434,195.229 143.01,193.736 142.226,191.411C141.387,188.921 141.775,183.908 142.095,181.964C143.108,175.813 142.594,164.358 142.799,158.11C143.42,139.193 143.919,123.736 141.755,104.575ZM154.788,109.056C156.319,126.248 155.876,140.975 155.298,158.587C155.089,164.95 155.457,176.315 154.58,183.151C155.631,182.99 156.676,182.881 157.692,182.908C168.096,183.176 178.48,184.342 188.874,184.833C193.175,185.036 197.482,185.106 201.785,185.247C205.858,185.38 209.934,185.464 214.004,185.654C216.404,185.766 218.783,186.175 221.181,186.303C222.126,186.354 223.074,186.336 224.02,186.336C224.56,186.336 225.101,186.325 225.641,186.314C225.776,184.557 225.77,182.789 225.892,181.03C226.074,178.434 226.386,175.848 226.541,173.25C226.708,170.458 226.822,167.662 226.864,164.865C226.932,160.283 226.863,155.699 226.863,151.117C226.863,138.855 226.75,126.635 227.514,114.393C227.676,111.785 227.893,109.18 228.05,106.572C226.517,106.232 224.789,106.12 223.06,106.033C219.011,105.83 214.888,106.075 211.894,106.031C201.684,105.882 191.016,105.53 180.774,106.288C172.065,106.932 163.46,108.442 154.788,109.056Z" style="fill:rgb(62,62,62);"/>
    </g>
</svg>
