<?xml version="1.0" encoding="UTF-8" standalone="no"?>
<!DOCTYPE svg PUBLIC "-//W3C//DTD SVG 1.1//EN" "http://www.w3.org/Graphics/SVG/1.1/DTD/svg11.dtd">
<svg width="100%" height="100%" viewBox="0 0 1080 1080" version="1.1" xmlns="http://www.w3.org/2000/svg" xmlns:xlink="http://www.w3.org/1999/xlink" xml:space="preserve" xmlns:serif="http://www.serif.com/" style="fill-rule:evenodd;clip-rule:evenodd;stroke-linejoin:round;stroke-miterlimit:2;">
    <path d="M618.352,95.549C545.555,47.584 397.496,93.89 365.691,177.226C336,255.025 366.185,338.357 421.935,395.476C448.431,422.621 492.968,423.604 527.827,423.604C622.621,423.604 671.397,420.361 695.88,317.961C699.282,303.732 705.037,288.842 705.984,274.191C710.86,198.8 657.364,149.299 605.78,104.175C597.506,96.937 585.345,91.777 577.92,84.352" style="fill:white;"/>
    <path d="M625.256,105.367C675.541,150.325 722.73,201.199 717.959,274.965C716.969,290.279 711.107,305.878 707.551,320.752C696.937,365.144 681.552,392.049 661.006,408.706C630.807,433.188 588.23,435.604 527.827,435.604C490.03,435.604 442.077,433.291 413.348,403.857C354.402,343.466 323.087,255.205 354.48,172.947C371.537,128.253 419.271,92.878 472.999,75.718C526.73,58.557 585.909,59.802 624.955,85.529C630.485,89.173 632.017,96.621 628.373,102.152C627.518,103.448 626.455,104.525 625.256,105.367ZM567.13,89.609C539.903,85.709 509.175,89.359 480.3,98.581C433.847,113.417 391.65,142.862 376.902,181.505C348.912,254.846 377.967,333.248 430.523,387.094C442.059,398.913 457.651,404.769 474.025,407.938C492.063,411.429 511.108,411.604 527.827,411.604C581.182,411.604 619.217,411.688 645.893,390.063C663.262,375.982 675.236,352.7 684.209,315.171C687.457,301.585 693.105,287.405 694.009,273.417C698.625,202.041 646.715,155.928 597.879,113.207C589.413,105.801 577.032,100.434 569.434,92.837C568.466,91.869 567.698,90.776 567.13,89.609Z"/>
    <g transform="matrix(0.664934,-0.746902,0.746902,0.664934,-16.3941,420.926)">
        <path d="M426.713,187.213C431.339,191.839 438.708,193.65 444.357,196.794C446.843,198.178 495.263,222.646 499.384,222.646" style="fill:white;"/>
        <path d="M501.377,210.811C507.053,211.761 511.384,216.701 511.384,222.646C511.384,229.269 506.007,234.646 499.384,234.646C498.03,234.646 493.546,233.695 487.554,231.104C472.641,224.655 440.554,208.411 438.521,207.279C431.947,203.62 423.611,201.081 418.228,195.698C413.545,191.015 413.545,183.411 418.228,178.728C422.911,174.045 430.515,174.045 435.198,178.728C436.943,180.473 439.439,181.355 441.819,182.389C444.712,183.646 447.605,184.868 450.194,186.309C452.359,187.515 490.512,206.842 501.031,210.689C501.136,210.728 501.263,210.772 501.377,210.811Z"/>
    </g>
    <g transform="matrix(0.559067,0.829122,-0.829122,0.559067,450.326,-423.091)">
        <path d="M652.299,196.703C652.299,202.686 626.461,208.621 622.272,210.368C616.887,212.614 598.772,226.991 593.6,226.991" style="fill:white;"/>
        <path d="M591.794,215.127C593.027,214.425 599.116,210.938 602.932,208.383C608.986,204.329 614.852,200.461 617.653,199.293C620.361,198.163 637.853,192.076 641.932,190.659C644.014,187.098 647.879,184.703 652.299,184.703C658.922,184.703 664.299,190.08 664.299,196.703C664.299,200.876 662.26,206.098 656.376,210.143C649.058,215.173 630.526,219.927 626.892,221.443C623.365,222.914 614.092,230.086 607.133,234.173C601.479,237.493 596.352,238.991 593.6,238.991C586.978,238.991 581.6,233.614 581.6,226.991C581.6,220.982 586.027,215.999 591.794,215.127Z"/>
    </g>
    <path d="M499.325,333.921C503.169,334.543 511.724,335.934 513.87,336.336C535.954,340.477 562.622,338.406 579.533,321.772C584.255,317.128 591.859,317.19 596.503,321.912C601.148,326.634 601.085,334.238 596.363,338.882C573.878,360.999 538.81,365.431 509.447,359.925C505.828,359.247 493.916,358.131 488.264,355.793C483.622,353.874 480.912,350.85 479.613,348.253C477.987,345.001 476.694,341.472 474.485,338.424C474.403,338.312 474.215,338.015 474.01,337.684C472.127,335.564 470.982,332.774 470.982,329.717C470.982,324.191 473.797,321.644 475.393,320.334C478.82,317.52 483.776,315.658 489.736,319.637C490.527,320.165 494.368,325.016 494.368,325.016C494.368,325.016 494.022,324.484 493.917,324.339C496.1,327.351 497.741,330.648 499.325,333.921ZM491.99,337.642C493.428,336.15 494.982,333.749 494.982,329.717C494.982,332.753 493.852,335.527 491.99,337.642Z"/>
    <path d="M455.882,253.988C457.513,252.891 457.316,252.484 457.316,253.949" style="fill:white;"/>
    <path d="M456.93,265.942C452.721,266.306 448.445,264.434 445.923,260.682C442.228,255.186 443.691,247.724 449.188,244.029C458.557,237.73 464.549,243.376 465.503,244.273C466.242,244.968 469.316,247.435 469.316,253.949C469.316,260.571 463.939,265.949 457.316,265.949C457.187,265.949 457.058,265.946 456.93,265.942Z"/>
    <path d="M620.348,259.564C621.699,260.239 624.853,261.128 624.269,261.128" style="fill:white;"/>
    <path d="M618.882,271.852C617.775,271.45 615.855,270.733 614.982,270.297C609.058,267.335 606.653,260.121 609.615,254.197C612.577,248.273 619.791,245.869 625.715,248.831C626.729,249.337 628.847,249.949 629.325,250.172C632.529,251.673 633.87,253.745 634.413,254.585C637.842,259.885 636.784,264.474 633.981,268.258C633.034,269.537 630.544,273.128 624.269,273.128C622.332,273.128 620.502,272.668 618.882,271.852ZM612.979,265.201C612.519,263.929 612.269,262.558 612.269,261.128C612.269,259.279 612.687,257.528 613.436,255.963C611.999,258.693 611.566,261.782 612.979,265.201ZM615.427,253.017C617.622,250.627 620.771,249.128 624.269,249.128C619.275,249.128 616.72,251.454 615.427,253.017Z"/>
    <path d="M483.658,417.374C383.028,417.374 331.795,482.701 327.006,578.214C324.628,625.646 331.715,669.709 363.021,707.974C398.552,751.404 459.402,756.103 512.192,758.191C619.136,762.421 680.87,763.816 733.779,662.404C782.867,568.317 709.509,423.604 601.074,423.604L483.658,417.374Z" style="fill:white;"/>
    <path d="M484.294,405.391C484.294,405.391 601.4,411.605 601.385,411.605C659.882,411.741 709.262,450.29 737.068,502.042C764.693,553.455 770.741,617.502 744.418,667.955C721.835,711.241 697.462,736.724 669.38,751.732C628.288,773.694 578.515,772.824 511.718,770.181C455.654,767.964 391.467,761.695 353.733,715.573C320.423,674.857 312.49,628.082 315.021,577.613C317.573,526.713 332.861,483.988 360.557,453.856C388.585,423.363 429.388,405.374 483.658,405.374C483.87,405.374 484.082,405.379 484.294,405.391ZM483.344,429.374L483.328,429.374C437.131,429.443 402.113,444.11 378.227,470.097C353.951,496.507 341.228,534.202 338.991,578.815C336.765,623.21 343.007,664.56 372.309,700.375C405.639,741.115 463.146,744.241 512.666,746.2C574.204,748.634 620.211,750.799 658.068,730.566C682.618,717.445 703.397,694.696 723.14,656.853C745.906,613.218 739.818,557.867 715.927,513.401C692.267,469.366 650.877,435.604 601.074,435.604C600.862,435.604 600.65,435.599 600.439,435.587L483.344,429.374Z"/>
    <path d="M403.578,745.429C403.578,786.49 389.891,825.069 361.935,855.241C353.082,864.795 341.793,871.32 334.048,881.897C316.609,905.714 277.468,980.911 281.194,1012.51C288.198,1071.92 397.18,1062.05 433.323,1036.47C445.008,1028.2 458.103,1020.2 467.447,1009.03C475.004,999.999 475.907,989.227 478.893,978.299C484.339,958.37 492.819,939.491 497.375,919.319C502.402,897.065 501.792,873.631 506.112,851.353C510.479,828.836 517.64,786.665 506.754,764.892C505.246,761.876 475.937,763.025 464.58,761.345C446.372,758.652 425.942,745.128 410.751,745.128" style="fill:white;"/>
    <path d="M406.684,733.835C407.954,733.377 409.324,733.128 410.751,733.128C418.09,733.128 426.499,735.501 435.286,738.845C445.401,742.695 456.21,747.976 466.336,749.474C475.43,750.82 496.023,750.356 504.67,751.661C512.574,752.854 516.383,757.318 517.487,759.526C522.56,769.672 524.589,783.564 524.488,798.329C524.353,818.126 520.621,839.568 517.893,853.638C513.549,876.035 514.134,899.59 509.08,921.963C504.485,942.309 495.962,961.361 490.469,981.462C487.02,994.085 485.379,1006.3 476.65,1016.73C466.649,1028.69 452.763,1037.41 440.255,1046.26C416.639,1062.98 364.533,1073.93 324.926,1065.73C295.217,1059.57 272.709,1043.04 269.276,1013.92C268.007,1003.15 270.76,987.877 276.272,971.116C288.009,935.423 311.717,892.082 324.366,874.808C332.386,863.854 343.965,856.979 353.132,847.085C379.003,819.163 391.578,783.427 391.578,745.429C391.578,738.806 396.955,733.429 403.578,733.429C404.652,733.429 405.693,733.57 406.684,733.835ZM415.199,757.578C412.715,797.125 398.004,833.968 370.737,863.397C362.2,872.611 351.199,878.785 343.73,888.986C333.631,902.778 316.047,934.451 304.329,964.148C297.106,982.451 291.781,999.83 293.111,1011.11C295.283,1029.53 310.998,1038.33 329.793,1042.22C362.926,1049.09 406.635,1040.65 426.391,1026.67C437.253,1018.99 449.557,1011.71 458.243,1001.33C464.631,993.696 464.793,984.374 467.318,975.136C472.716,955.379 481.153,936.673 485.67,916.675C490.67,894.54 490.034,871.227 494.332,849.068C496.844,836.117 500.364,816.388 500.489,798.165C500.546,789.78 499.99,781.729 497.948,775.129C495.907,774.96 493.326,774.773 491.02,774.685C481.168,774.309 469.253,774.167 462.824,773.216C452.856,771.741 442.236,767.437 432.073,763.366C426.114,760.98 420.4,758.556 415.199,757.578Z"/>
    <path d="M660.211,746.999C660.211,793.18 666.39,837.436 670.925,882.983C675.473,928.657 660.549,977.669 689.656,1017.61C711.023,1046.92 820.316,1055.02 843.552,1023.78C850.508,1014.43 851.825,992.788 853.166,981.99C863.88,895.721 809.991,893.767 770.324,844.121C756.157,826.389 752.418,801.513 748.812,780.056C746.614,766.976 736.219,755.099 730.003,743.963C724.075,733.342 708.497,734.151 698.229,735.029C694.503,735.348 683.392,742.388 683.392,742.386" style="fill:white;"/>
    <path d="M700.18,746.907C698.823,747.624 691.223,751.645 690.05,752.376C678.437,759.606 671.392,742.399 671.392,742.386C671.392,738.037 673.71,734.226 677.177,732.121C677.238,732.081 677.301,732.042 677.365,732.002C678.81,731.102 684.405,727.685 688.922,725.596C692.221,724.069 695.275,723.238 697.206,723.073C704.66,722.435 714.416,722.068 722.586,724.46C730.136,726.67 736.505,730.99 740.482,738.115C747.316,750.36 758.229,763.685 760.646,778.068C763.932,797.62 766.789,820.472 779.7,836.631C795.019,855.804 812.628,867.508 827.471,880.103C853.198,901.935 872.247,925.72 865.075,983.469C864.237,990.211 863.376,1001.01 861.283,1010.68C859.537,1018.75 856.805,1026.07 853.181,1030.95C847.268,1038.89 837.234,1045.25 824.334,1049.38C807.924,1054.63 786.549,1056.54 765.253,1055.39C744.104,1054.24 723.061,1050.09 707.125,1043.63C694.756,1038.61 685.289,1031.99 679.958,1024.67C663.86,1002.59 659.61,978.084 659.083,952.695C658.614,930.051 661.227,906.7 658.984,884.172C654.41,838.228 648.211,793.583 648.211,746.999C648.211,740.377 653.589,734.999 660.211,734.999C666.834,734.999 672.211,740.377 672.211,746.999C672.211,792.777 678.371,836.645 682.866,881.794C685.171,904.94 682.596,928.932 683.078,952.197C683.504,972.716 686.344,992.688 699.353,1010.54C702.571,1014.95 708.68,1018.36 716.145,1021.38C729.956,1026.99 748.224,1030.43 766.553,1031.42C784.735,1032.41 803.007,1031.01 817.017,1026.52C824.4,1024.16 830.54,1021.17 833.924,1016.62C835.865,1014.01 836.891,1009.93 837.826,1005.6C839.755,996.692 840.486,986.726 841.258,980.511C846.943,934.737 832.335,915.707 811.942,898.402C796.039,884.907 777.364,872.156 760.949,851.612C745.524,832.306 740.904,805.407 736.978,782.045C734.999,770.264 725.123,759.841 719.525,749.811C718.383,747.766 715.994,747.402 713.714,747.011C709.177,746.233 704.254,746.565 700.18,746.907Z"/>
    <path d="M744.218,547.343C756.853,547.343 771.393,539.267 784.703,538.076C808.068,535.985 831.746,536.944 855.241,536.944C855.853,536.944 859.104,537.407 859.56,536.944C870.211,526.115 863.773,487.137 887.545,490.7C904.96,493.31 933.417,492.794 948.704,500.438C975.583,513.877 980.895,604.624 941.531,618.463C929.437,622.715 879.949,629.947 868.526,624.236C860.589,620.267 856.276,604.583 852.381,603.974C819.413,598.82 786.33,604.196 754.441,604.196" style="fill:white;"/>
    <path d="M852.823,524.941C853.32,523.165 853.621,521.077 854.084,518.951C855.602,511.986 856.915,504.362 859.254,498.113C862.096,490.52 866.505,484.666 872.575,481.4C877.006,479.015 882.446,477.801 889.324,478.832C907.785,481.599 937.864,481.602 954.071,489.705C961.502,493.421 968.196,501.027 972.986,511.587C978.803,524.409 982.114,541.886 981.958,559.407C981.799,577.255 978.005,595.068 970.339,608.211C964.347,618.483 956.033,626.085 945.512,629.784C936.466,632.964 907.864,637.844 887.319,638.308C876.534,638.552 867.644,637.211 863.16,634.969C858.971,632.874 855.137,629.067 851.999,624.463C850.186,621.803 847.794,617.703 846.386,615.238C815.415,611.227 784.391,616.196 754.441,616.196C747.818,616.196 742.441,610.819 742.441,604.196C742.441,597.573 747.818,592.196 754.441,592.196C786.933,592.196 820.642,586.867 854.234,592.118C857.268,592.592 861.118,594.382 864.381,598.717C866.228,601.171 868.32,605.302 870.767,609.293C871.754,610.903 872.481,612.797 873.893,613.503C876.266,614.689 881.068,614.444 886.776,614.314C904.689,613.909 929.665,609.915 937.551,607.143C944.352,604.752 948.835,598.675 952.027,591.305C956.056,581.999 957.858,570.581 957.959,559.194C958.082,545.399 955.71,531.597 951.131,521.502C948.987,516.778 946.663,512.834 943.338,511.171C928.969,503.987 902.135,505.02 885.766,502.567C883.961,502.297 883.118,503.417 882.479,504.75C881.538,506.712 880.868,508.986 880.266,511.366C878.61,517.915 877.538,525.123 875.784,531.044C874.008,537.037 871.43,541.989 868.115,545.359C866.958,546.535 865.273,547.797 862.835,548.538C861.189,549.038 854.638,548.925 854.638,548.925C854.638,548.925 855.093,548.944 855.241,548.944C832.103,548.944 808.783,547.969 785.772,550.028C779.932,550.551 773.851,552.699 767.815,554.601C759.709,557.156 751.663,559.343 744.218,559.343C737.595,559.343 732.218,553.966 732.218,547.343C732.218,540.72 737.595,535.343 744.218,535.343C749.408,535.343 754.949,533.492 760.6,531.711C768.32,529.278 776.164,526.792 783.634,526.124C806.552,524.073 829.766,524.884 852.823,524.941Z"/>
    <path d="M328.616,526.217C308.379,526.217 258.6,537.653 244.537,530.622C203.438,510.072 228.24,473.253 180.243,470.294C172.689,469.828 165.135,469.331 157.573,469.03C144.573,468.514 131.273,469.03 118.253,469.03C104.737,469.03 88.884,467.392 75.961,472.172C16.974,493.991 46.406,581.621 95.556,601.415C139.685,619.187 191.611,612.11 233.353,590.891C244.298,585.327 282.224,608.277 294.636,610.734C302.074,612.207 309.632,604.17 315.095,604.17" style="fill:white;"/>
    <path d="M296.544,598.873C296.935,598.74 298.094,598.336 298.728,598.033C300.673,597.102 302.554,596.004 304.329,595.122C308.172,593.21 311.875,592.17 315.095,592.17C321.718,592.17 327.095,597.547 327.095,604.17C327.095,610.444 322.269,615.6 316.13,616.126C315.23,616.597 311.04,618.781 308.524,619.947C303.284,622.376 297.735,623.58 292.306,622.506C284.484,620.957 266.927,611.873 251.72,605.945C246.679,603.98 239.309,602.402 237.8,602.088C193.231,624.436 138.022,631.454 91.073,612.546C63.133,601.294 40.47,571.02 33.502,540.198C26.035,507.164 35.858,474.211 71.798,460.917C86.004,455.663 103.396,457.03 118.253,457.03C131.431,457.03 144.892,456.517 158.049,457.04C165.699,457.344 173.34,457.845 180.982,458.316C196.44,459.27 205.878,463.434 212.405,468.83C219.05,474.325 222.856,481.379 226.093,489.342C230.147,499.313 233.032,511.452 249.904,519.889C251.557,520.715 254.104,520.771 257.131,520.87C261.844,521.024 267.386,520.701 273.282,520.159C292.987,518.349 316.229,514.217 328.616,514.217C335.239,514.217 340.616,519.594 340.616,526.217C340.616,532.84 335.239,538.217 328.616,538.217C314.571,538.217 286.18,543.816 265.625,544.759C254.148,545.285 244.62,544.079 239.171,541.355C219.238,531.389 212.012,518.338 206.886,505.949C203.923,498.79 202.681,491.639 196.783,487.064C193.158,484.252 187.773,482.781 179.505,482.271C172.038,481.81 164.571,481.318 157.096,481.021C144.254,480.511 131.116,481.03 118.253,481.03C106.077,481.03 91.766,479.12 80.124,483.427C57.073,491.953 52.122,513.719 56.912,534.907C62.201,558.304 78.828,581.741 100.039,590.284C140.998,606.779 189.171,599.889 227.915,580.194C233.077,577.57 242.142,577.46 252.711,580.825C267.721,585.603 287.847,596.913 296.544,598.873Z"/>
</svg>
