<?xml version="1.0" encoding="UTF-8" standalone="no"?>
<!DOCTYPE svg PUBLIC "-//W3C//DTD SVG 1.1//EN" "http://www.w3.org/Graphics/SVG/1.1/DTD/svg11.dtd">
<svg width="100%" height="100%" viewBox="0 0 128 128" version="1.1" xmlns="http://www.w3.org/2000/svg" xmlns:xlink="http://www.w3.org/1999/xlink" xml:space="preserve" xmlns:serif="http://www.serif.com/" style="fill-rule:evenodd;clip-rule:evenodd;stroke-linejoin:round;stroke-miterlimit:2;">
    <g transform="matrix(1.11991,0,0,1.11991,-8.41673,-1.78401)">
        <path d="M49.671,22.767C49.32,21.197 46.421,20.158 45.18,19.796C41.791,18.805 37.222,18.241 34.135,20.527C32.767,21.54 31.81,22.89 30.961,24.35C29.575,26.733 29.669,29.745 30.184,32.35C30.447,33.68 31.544,35.208 30.683,36.558C29.509,38.401 27.283,39.139 25.451,40.136C23.166,41.38 20.965,42.764 18.855,44.283C18.187,44.764 17.425,45.186 16.878,45.81C15.061,47.885 14.038,51.479 15.779,53.802C16.627,54.932 17.687,55.764 18.791,56.614C18.986,56.764 19.62,57.019 19.492,57.34C18.958,58.678 17.665,59.908 16.891,61.126C15.445,63.4 13.678,65.82 12.658,68.322C11.738,70.576 11.396,73.12 11.29,75.541C11.063,80.699 14.377,85.702 19.44,87.176C20.581,87.508 21.674,87.7 22.858,87.7C23.216,87.7 23.576,87.737 23.932,87.7C24.139,87.679 24.399,87.45 24.545,87.596C24.596,87.647 24.265,88.762 24.259,88.794C24.075,89.852 23.965,90.944 23.965,92.021C23.965,95.753 26.807,99.509 30.698,99.682C33.947,99.828 37.175,97.838 39.191,95.446C39.863,94.648 40.453,93.754 40.894,92.809C41.013,92.555 41.098,92.287 41.207,92.029C41.277,91.861 41.29,91.424 41.437,91.533C41.735,91.752 41.51,92.269 41.571,92.634C41.8,94.009 42.138,95.361 42.388,96.734C43.079,100.538 44.846,106.255 49.119,107.537C54.527,109.161 58.456,105.419 60.732,100.903C61.235,99.905 61.417,97.859 62.226,97.043C62.308,96.96 62.306,97.263 62.369,97.361C62.601,97.725 63.092,98.301 63.383,98.609C64.319,99.603 65.356,100.517 66.452,101.331C69.804,103.818 73.597,104.481 77.696,104.616C81.555,104.744 85.465,104.324 89.098,102.948C90.781,102.31 92.576,101.281 93.547,99.703C94.734,97.776 94.174,95.166 94.174,93.041C94.174,92.989 94.235,93.126 94.276,93.159C94.545,93.378 94.803,93.613 95.089,93.81C95.31,93.961 95.556,94.072 95.791,94.2C96.843,94.769 97.896,95.37 99.044,95.729C101.865,96.61 105.017,96.438 107.846,95.733C109.044,95.434 110.505,95.026 111.406,94.128C113.846,91.695 112.352,88.833 110.816,86.34C110.32,85.535 109.801,84.748 109.207,84.008C108.986,83.732 108.687,83.509 108.45,83.25C108.363,83.156 108.004,83.113 108.119,83.054C110.878,81.652 112.145,78.31 112.957,75.46C114.643,69.552 115.563,62.549 114.453,56.442C113.815,52.933 111.987,49.377 109.297,47.026C108.401,46.243 107.303,45.742 106.121,45.595C105.523,45.521 104.964,45.411 104.368,45.515C104.303,45.527 103.952,45.658 104.018,45.723C104.572,46.278 106.887,44.71 107.2,44.511C110.975,42.114 114.62,38.581 116.067,34.238C118.053,28.276 116.481,20.692 111.055,16.935C105.882,13.354 99.824,14.082 95.387,18.373C95.226,18.529 95.446,17.928 95.446,17.704C95.446,17.256 95.438,17.287 95.307,16.829C94.991,15.727 94.344,14.824 93.568,13.997C91.358,11.642 87.812,10.811 84.677,11.362C81.508,11.92 78.533,13.629 76.043,15.631C75.606,15.983 74.437,16.983 74.001,17.417C73.728,17.689 73.639,18.307 73.253,18.3C73.066,18.297 73.253,17.925 73.253,17.737C73.253,17.509 73.266,17.282 73.253,17.054C73.2,16.091 72.809,15.24 72.339,14.406C71.196,12.378 68.86,10.507 66.593,9.911C60.829,8.395 55.876,12.031 51.787,15.667C50.439,16.865 49.274,18.207 48.44,19.802C48.284,20.101 47.804,22.271 48.494,22.271" style="fill:white;"/>
        <path d="M15.439,57.928C14.653,57.255 13.92,56.532 13.279,55.677C10.69,52.225 11.826,46.834 14.528,43.751C15.23,42.95 16.172,42.364 17.029,41.747C19.245,40.151 21.557,38.698 23.957,37.391C24.703,36.986 25.511,36.621 26.29,36.211C26.838,35.923 27.397,35.641 27.806,35.193C27.745,35 27.662,34.737 27.601,34.57C27.402,34.019 27.22,33.475 27.118,32.956C26.462,29.637 26.494,25.815 28.259,22.779C29.323,20.948 30.56,19.286 32.275,18.016C36.133,15.159 41.821,15.558 46.057,16.796C46.194,16.836 46.347,16.883 46.512,16.937C47.405,15.602 48.492,14.414 49.71,13.331C54.554,9.025 60.561,5.092 67.388,6.888C70.3,7.655 73.306,9.986 74.886,12.573C77.609,10.529 80.788,8.874 84.136,8.284C88.274,7.556 92.929,8.748 95.848,11.859C96.279,12.319 96.676,12.798 97.027,13.305C101.964,10.626 107.743,10.841 112.834,14.366C119.389,18.904 121.431,28.024 119.032,35.226C117.741,39.101 114.98,42.457 111.78,45.059C114.756,47.855 116.801,51.887 117.528,55.883C118.721,62.443 117.773,69.971 115.963,76.318C115.278,78.717 114.231,81.318 112.586,83.324C112.895,83.774 113.19,84.235 113.477,84.701C115.766,88.416 117.249,92.715 113.613,96.341C112.329,97.621 110.31,98.339 108.603,98.765C105.231,99.606 101.474,99.762 98.112,98.712C97.829,98.623 97.549,98.523 97.274,98.414C97.099,99.453 96.763,100.441 96.209,101.342C94.882,103.497 92.504,105 90.205,105.871C86.186,107.393 81.863,107.881 77.593,107.74C72.843,107.583 68.474,106.723 64.589,103.84C64.14,103.507 63.7,103.159 63.27,102.796C60.269,108.418 55.049,112.58 48.22,110.53C45.804,109.805 43.9,108.145 42.488,105.988C41.172,103.978 40.298,101.521 39.745,99.299C37.207,101.457 33.872,102.953 30.559,102.805C25.02,102.557 20.839,97.332 20.839,92.021C20.839,91.577 20.855,91.131 20.885,90.686C20.111,90.576 19.347,90.404 18.567,90.176C12.128,88.302 7.879,81.964 8.167,75.404C8.289,72.632 8.711,69.723 9.764,67.142C10.852,64.473 12.711,61.875 14.253,59.449C14.576,58.941 15.017,58.44 15.439,57.928ZM105.796,48.705C105.496,48.811 105.211,48.89 104.964,48.925C103.567,49.12 102.507,48.633 101.808,47.933C101.003,47.128 100.784,46.217 100.914,45.275C100.994,44.692 101.27,43.858 102.123,43.193C102.552,42.858 103.582,42.48 103.829,42.437C104.115,42.387 104.396,42.362 104.675,42.356C105.052,42.145 105.448,41.921 105.525,41.873C108.718,39.845 111.878,36.924 113.102,33.25C114.675,28.528 113.574,22.481 109.276,19.505C105.407,16.826 100.879,17.41 97.56,20.619C96.888,21.27 96.261,21.412 95.882,21.478C95.004,21.629 94.279,21.424 93.669,21.038C93.188,20.733 92.736,20.282 92.448,19.589C92.38,19.428 92.362,18.512 92.358,17.882C92.343,17.83 92.322,17.756 92.303,17.69C92.126,17.074 91.722,16.597 91.289,16.136C89.787,14.535 87.349,14.065 85.219,14.44C82.561,14.908 80.09,16.387 78.002,18.066C77.618,18.376 76.589,19.251 76.206,19.631C76.331,19.507 76.559,19.182 76.559,19.182C76.559,19.182 74.591,21.448 73.202,21.425C71.309,21.394 70.185,17.185 70.185,17.185C70.185,17.185 70.128,17.586 70.128,17.737C70.128,17.567 70.142,17.398 70.133,17.228C70.106,16.751 69.849,16.354 69.616,15.941C68.855,14.59 67.308,13.331 65.798,12.933C61.093,11.696 57.201,15.035 53.863,18.003C53.107,18.675 52.416,19.398 51.844,20.213C52.28,20.801 52.576,21.436 52.721,22.084C53.098,23.768 52.037,25.44 50.353,25.817C49.482,26.012 48.613,25.821 47.926,25.359C46.743,25.196 45.828,24.501 45.31,23.212C44.906,23.025 44.522,22.859 44.304,22.795C41.759,22.052 38.313,21.322 35.995,23.039C34.974,23.795 34.296,24.832 33.662,25.921C32.656,27.652 32.876,29.852 33.25,31.743C33.41,32.557 33.872,33.445 34.03,34.32C34.272,35.659 34.123,36.975 33.319,38.237C31.858,40.53 29.224,41.641 26.945,42.881C24.775,44.062 22.685,45.377 20.681,46.819C20.202,47.164 19.621,47.422 19.229,47.87C18.669,48.509 18.232,49.383 18.068,50.276C17.962,50.855 17.931,51.462 18.279,51.926C18.954,52.826 19.821,53.462 20.699,54.139C20.652,54.103 20.52,54.014 20.52,54.014C20.52,54.014 22.052,55.228 22.346,55.894C22.712,56.722 22.757,57.592 22.395,58.499C21.793,60.006 20.4,61.432 19.528,62.803C18.179,64.925 16.503,67.167 15.551,69.502C14.766,71.429 14.503,73.609 14.412,75.679C14.247,79.435 16.627,83.102 20.313,84.175C21.163,84.422 21.976,84.575 22.858,84.575C23.11,84.575 23.364,84.617 23.615,84.591C23.4,84.613 22.922,84.758 22.922,84.758C22.922,84.758 25.806,84.437 26.755,85.386C27.053,85.684 27.774,86.459 27.666,87.879C27.648,88.117 27.416,89.055 27.32,89.437C27.177,90.286 27.09,91.159 27.09,92.021C27.09,94.174 28.592,96.46 30.838,96.56C33.142,96.663 35.371,95.13 36.801,93.432C37.298,92.842 37.737,92.184 38.063,91.486C38.159,91.28 38.226,91.061 38.312,90.851C38.42,90.526 38.58,90.074 38.684,89.907C39.1,89.236 39.649,88.852 40.178,88.632C41.054,88.269 42.112,88.147 43.292,89.017C44.326,89.78 44.683,92.562 44.683,92.562C44.683,92.562 44.677,92.258 44.654,92.12C44.88,93.481 45.216,94.817 45.463,96.175C45.76,97.815 46.274,99.872 47.189,101.652C47.852,102.94 48.684,104.144 50.017,104.544C53.816,105.684 56.342,102.668 57.941,99.497C58.185,99.012 58.296,98.211 58.519,97.514C58.87,96.417 59.389,95.466 60.007,94.842C60.613,94.231 61.23,94.032 61.723,93.948C62.296,93.85 62.836,93.91 63.349,94.101C63.852,94.288 65.378,96.563 65.378,96.563C65.378,96.563 65.134,95.884 65.003,95.68C65.151,95.911 65.472,96.27 65.657,96.466C66.468,97.326 67.366,98.117 68.314,98.821C71.134,100.914 74.351,101.379 77.799,101.493C81.248,101.607 84.745,101.255 87.99,100.025C89.059,99.621 90.269,99.067 90.886,98.065C91.28,97.424 91.198,96.628 91.172,95.855C91.139,94.888 91.049,93.924 91.049,93.041C91.049,92.122 91.379,91.59 91.581,91.29C92.115,90.493 92.817,90.114 93.567,89.965C94.129,89.852 94.786,89.865 95.498,90.196C95.71,90.295 96.866,91.421 96.866,91.421C96.866,91.421 96.415,90.871 96.247,90.734C96.451,90.9 96.641,91.085 96.858,91.234C96.988,91.323 97.14,91.376 97.278,91.451C98.154,91.925 99.02,92.447 99.976,92.746C102.256,93.458 104.803,93.271 107.09,92.7C107.78,92.528 108.68,92.433 109.199,91.915C109.657,91.459 109.588,90.938 109.422,90.439C109.144,89.595 108.642,88.769 108.155,87.98C107.727,87.285 107.283,86.603 106.77,85.964C106.591,85.742 106.339,85.573 106.147,85.363C106.367,85.603 107.24,86.11 107.24,86.11C107.24,86.11 105.57,84.954 105.394,84.652C104.882,83.768 104.835,82.874 105.17,81.978C105.353,81.489 105.699,80.779 106.702,80.269C108.704,79.251 109.362,76.67 109.952,74.603C111.512,69.134 112.406,62.654 111.378,57.001C110.863,54.166 109.413,51.279 107.24,49.379C106.831,49.021 106.334,48.783 105.796,48.705ZM38.307,90.866C38.261,90.991 38.196,91.209 38.196,91.209C38.196,91.209 38.241,91.063 38.307,90.866ZM92.358,17.818C92.356,17.504 92.358,17.275 92.358,17.275C92.358,17.275 92.336,17.467 92.326,17.605L92.358,17.818Z" style="fill:white;"/>
    </g>
</svg>
