<?xml version="1.0" encoding="UTF-8" standalone="no"?>
<!DOCTYPE svg PUBLIC "-//W3C//DTD SVG 1.1//EN" "http://www.w3.org/Graphics/SVG/1.1/DTD/svg11.dtd">
<svg width="100%" height="100%" viewBox="0 0 1080 1080" version="1.1" xmlns="http://www.w3.org/2000/svg" xmlns:xlink="http://www.w3.org/1999/xlink" xml:space="preserve" xmlns:serif="http://www.serif.com/" style="fill-rule:evenodd;clip-rule:evenodd;stroke-linejoin:round;stroke-miterlimit:2;">
    <g transform="matrix(1.36276,0,0,1.5344,-144.695,-112.752)">
        <path d="M487.633,122.971C481.161,125.104 443.232,117.023 432.297,116.653C395.818,115.419 360.379,117.735 325.118,127.133C299.887,133.857 287.046,156.177 279.346,179.404C277.055,186.314 275.264,194.27 274.857,201.595L274.857,211.5C274.857,212.482 274.857,215.425 274.857,214.444C274.857,214.274 260.369,214.666 252.174,217.394C230.027,224.767 203.123,234.609 187.089,252.259C175.328,265.208 179.901,283.899 189.409,296.585C190.637,298.223 203.459,309.631 202.888,311.315C199.296,321.916 183.233,328.64 177.294,338.38C170.253,349.929 166.881,364.741 165.54,378.006C164.566,387.632 167.738,390.711 161.848,398.508C149.262,415.17 128.403,424.94 124.713,448.014C119.453,480.911 135.078,502.732 163.259,518.607C168.2,521.39 185.903,525.615 188.557,528.27C189.015,528.728 183.554,546.86 183.505,547.073C183.377,547.629 183.21,548.176 183.088,548.733C178.176,571.145 175.541,595.164 179.867,617.915C183.892,639.084 204.293,654.537 221.851,664.589C224.298,665.989 248.429,676.205 249.031,677.409C257.116,693.578 253.641,720.569 270.406,732.099C288.457,744.513 316.526,741.904 336.399,735.42C344.927,732.637 353.569,729.301 361.387,724.902C364.15,723.347 367.041,717.358 369.283,719.6C378.614,728.931 386.503,741.538 398.868,747.599C461.226,778.168 530.748,745.323 592.118,728.753C593.853,728.285 607.175,734.548 611.295,734.718C628.009,735.41 644.418,734.279 660.733,730.343C685.809,724.293 727.771,716.779 744.107,693.425C749.726,685.393 754.217,676.2 756.125,666.541C756.642,663.927 756.915,652.602 758.787,650.699C759.525,649.949 768.765,651.423 769.961,651.113C774.784,649.864 778.732,647.916 783.262,645.757C805.463,635.177 824.233,621.666 839.635,602.326C857.213,580.252 868.605,552.718 871.756,524.803C872.628,517.081 866.41,490.379 866.746,489.108C878.857,443.392 879.295,391.175 870.096,344.847C864.965,319.005 855.866,298.891 838.053,281.078C837.615,280.64 837.421,268.566 837.411,268.493C836.078,258.367 835.239,248.111 833.549,238.049C828.554,208.323 818.388,183.117 797.782,161.164C779.039,141.196 748.329,131.264 722.09,127.323C712.067,125.818 702.318,125.768 692.192,125.768C689.912,125.768 686.97,127.665 685.358,126.053C680.403,121.098 677.394,113.705 671.883,108.98C653.018,92.801 628.847,88.602 604.86,89.595C593.399,90.069 575.069,105.007 566.592,103.11C541.362,97.465 516.158,92.815 489.956,94.811C478.305,95.699 465.475,97.9 454.531,102.116C451.996,103.092 446.714,107.471 443.578,107.471"/>
        <path d="M190.109,312.192C186.625,308.684 180.932,302.916 180.246,302.002C168.268,286.02 163.705,262.434 178.523,246.121C195.776,227.128 224.478,216.174 248.31,208.24C252.723,206.771 258.675,205.855 263.849,205.314L263.849,201.595C263.849,201.434 263.854,201.273 263.863,201.112C264.312,193.037 266.262,184.261 268.787,176.643C277.562,150.171 293.198,125.434 321.954,117.769C358.355,108.068 394.934,105.615 432.591,106.88C432.896,102.338 436.7,98.627 441.64,97.847C442.945,97.065 448.382,93.829 450.151,93.147C462.163,88.52 476.228,86.046 489.015,85.071C516.107,83.007 542.199,87.601 568.286,93.408C569.576,92.909 575.447,90.613 579.185,88.734C587.892,84.357 597.294,80.122 604.347,79.83C631.299,78.714 658.333,83.77 679.529,101.947C684.059,105.833 687.024,111.417 690.621,116.121C691.214,116.043 691.762,115.992 692.192,115.992C702.94,115.992 713.286,116.086 723.926,117.684C752.525,121.98 785.807,133.14 806.237,154.904C828.15,178.25 839.123,204.994 844.435,236.606C846.143,246.77 846.997,257.129 848.344,267.357C848.35,267.404 848.606,273.684 848.745,277.116C866.316,295.657 875.655,316.554 880.936,343.149C890.276,390.189 889.912,443.138 877.89,489.708C878.769,494.263 883.465,519.08 882.708,525.778C879.367,555.378 867.261,584.564 848.621,607.971C832.178,628.62 812.169,643.076 788.466,654.371C783.225,656.869 778.622,659.052 773.043,660.498C772.223,660.71 770.543,661.011 768.252,660.903C768.149,660.898 768.035,660.892 767.912,660.885C767.563,663.929 767.165,667.226 766.967,668.231C764.814,679.129 759.797,689.52 753.457,698.584C745.868,709.433 733.693,717.526 719.741,723.557C701.068,731.627 679.209,736.015 663.619,739.776C646.181,743.984 628.647,745.222 610.783,744.483C608.928,744.407 605.895,743.789 602.485,742.652C599.449,741.639 594.689,739.879 592.217,738.955C562.175,747.283 530.262,759.099 498.244,765.398C462.778,772.374 427.214,772.661 393.549,756.157C383.032,751.002 375.261,741.682 367.518,733.016C367.435,733.069 367.355,733.116 367.278,733.16C358.8,737.93 349.443,741.579 340.195,744.596C317.13,752.122 284.617,754.236 263.667,739.829C255.069,733.915 250.206,725.043 247.303,714.942C244.363,704.715 243.712,693.058 240.166,684.068C234.356,681.428 217.697,673.841 215.888,672.805C196.019,661.43 173.568,643.498 169.014,619.543C164.47,595.643 167.124,570.408 172.284,546.866C172.412,546.281 172.585,545.706 172.719,545.123C172.744,545.013 174.456,538.875 175.854,533.865C169.66,531.779 160.276,528.503 157.364,526.862C125.374,508.842 107.845,483.982 113.815,446.64C115.997,432.998 123.064,423.206 131.636,414.444C138.588,407.338 146.672,401.051 152.708,393.061C154.996,390.032 154.556,388.234 154.429,385.626C154.314,383.25 154.232,380.539 154.577,377.131C156.047,362.589 159.895,346.386 167.615,333.725C171.122,327.974 177.4,322.939 183.548,317.952C185.896,316.047 188.331,314.232 190.109,312.192ZM460.14,110.624C465.814,111.503 471.482,112.35 476.35,112.927C479.656,113.319 483.941,113.493 484.795,113.525C490.216,112.235 495.96,114.803 497.952,119.569C500.066,124.627 497.158,130.258 491.463,132.136C488.717,133.041 481.959,133.318 473.436,132.307C459.715,130.68 439.348,126.675 431.878,126.422C396.621,125.229 362.361,127.413 328.282,136.496C306.569,142.283 296.531,162.176 289.905,182.165C287.874,188.292 286.256,195.332 285.864,201.846L285.864,214.444C285.864,214.499 285.864,214.554 285.863,214.608C285.863,214.625 285.863,214.642 285.863,214.658C285.796,226.108 280.326,228.207 274.857,226.397C271.748,227.426 268.64,227.192 266.523,224.696C262.918,225.046 258.821,225.621 256.037,226.548C235.574,233.36 210.47,242.089 195.656,258.397C186.943,267.99 191.528,281.77 198.572,291.168C198.531,291.113 198.377,290.904 198.377,290.904C198.377,290.904 210.882,303.122 212.604,306.303C214.433,309.684 213.99,312.474 213.428,314.132C211.481,319.88 207.111,324.958 201.714,329.622C196.549,334.086 190.055,337.981 186.973,343.035C180.61,353.472 177.715,366.893 176.503,378.88C176.046,383.393 176.604,386.37 176.543,389.134C176.442,393.688 175.538,397.932 170.989,403.954C165.621,411.06 158.897,417.03 152.443,423.162C144.84,430.387 137.465,437.796 135.611,449.389C131.062,477.839 144.782,496.622 169.155,510.352C172.294,512.12 181.18,514.373 187.013,516.486C191.88,518.249 195.38,520.371 196.787,521.779C197.43,522.421 200.275,525.242 199.414,530.349C198.848,533.711 194.336,548.826 194.291,549.023C194.17,549.552 194.009,550.071 193.892,550.601C189.229,571.882 186.613,594.684 190.72,616.287C194.216,634.673 212.565,647.641 227.815,656.372C230.023,657.636 249.843,666.068 254.226,668.62C257.477,670.514 258.688,672.635 259.091,673.441C263.431,682.121 264.865,693.665 267.268,704.626C268.967,712.382 270.778,719.991 277.145,724.37C292.301,734.792 315.918,731.688 332.603,726.244C340.177,723.773 347.864,720.852 354.851,717.003C355.616,716.173 358.654,712.918 360.114,711.903C361.824,710.715 363.583,710.013 365.218,709.653C369.443,708.722 373.679,709.274 377.513,713.108C386.049,721.644 392.876,733.496 404.187,739.04C432.88,753.106 463.256,752.255 493.483,746.309C526.054,739.902 558.489,727.616 588.916,719.4C590.281,719.032 593.644,718.599 598,719.944C601.456,721.012 611.212,724.551 612.382,724.976C627.748,725.571 642.842,724.529 657.848,720.909C672.349,717.41 692.738,713.484 710.107,705.976C720.184,701.621 729.277,696.101 734.757,688.267C739.655,681.265 743.621,673.271 745.284,664.852C745.714,662.677 746.038,654.71 747.125,650.595C747.924,647.567 749.352,645.433 750.498,644.268C751.658,643.089 753.649,641.567 757.003,640.965C758.693,640.662 765.695,641.116 768.367,641.304C771.775,640.246 774.714,638.737 778.058,637.143C798.757,627.279 816.289,614.713 830.648,596.681C847.166,575.939 857.843,550.058 860.804,523.828C861.448,518.127 857.637,501.246 856.353,494.109C855.629,490.089 855.892,487.397 856.032,486.869C867.812,442.401 868.204,391.608 859.256,346.545C854.516,322.672 846.278,304.025 829.823,287.569C829.25,286.996 827.533,285.255 827.023,281.947C826.705,279.88 826.456,270.63 826.418,269.166C825.133,259.293 824.31,249.299 822.662,239.492C817.984,211.651 808.627,187.984 789.327,167.424C772.27,149.252 744.134,140.548 720.255,136.962C711.106,135.588 702.198,135.545 692.974,135.544C691.896,135.794 689.087,136.418 687.689,136.468C683.604,136.613 680.043,135.459 677.128,132.545C674.71,130.127 672.627,127.261 670.621,124.291C668.656,121.379 666.872,118.272 664.237,116.012C647.703,101.833 626.396,98.49 605.372,99.36C602.678,99.472 599.558,101.094 596.215,102.684C591.067,105.133 585.782,108.012 581.118,109.962C574.427,112.759 568.305,113.575 563.903,112.59C539.862,107.21 515.864,102.649 490.897,104.551C480.816,105.32 469.742,107.123 460.14,110.624Z"/>
    </g>
</svg>
