<?xml version="1.0" encoding="UTF-8" standalone="no"?>
<!DOCTYPE svg PUBLIC "-//W3C//DTD SVG 1.1//EN" "http://www.w3.org/Graphics/SVG/1.1/DTD/svg11.dtd">
<svg width="100%" height="100%" viewBox="0 0 400 400" version="1.1" xmlns="http://www.w3.org/2000/svg" xmlns:xlink="http://www.w3.org/1999/xlink" xml:space="preserve" xmlns:serif="http://www.serif.com/" style="fill-rule:evenodd;clip-rule:evenodd;stroke-linejoin:round;stroke-miterlimit:2;">
    <g transform="matrix(4.16572,0,0,3.86298,-596.123,-364.317)">
        <path d="M145.061,103.75C144.924,103.389 144.849,102.993 144.849,102.579C144.849,100.865 146.14,99.473 147.73,99.473C158.601,99.473 169.292,97.264 180.149,96.461C190.637,95.685 201.563,96.029 212.018,96.182C215.739,96.237 221.144,95.881 226.081,96.389C229.801,96.772 233.267,97.671 235.796,99.366C236.328,99.722 237.082,100.528 237.295,101.967C237.459,103.081 237.26,105.455 237.246,105.741C237.089,108.848 236.821,111.949 236.627,115.054C235.878,127.076 235.997,139.075 235.997,151.117C235.997,155.752 236.065,160.388 235.997,165.022C235.953,167.977 235.832,170.932 235.656,173.883C235.499,176.516 235.185,179.138 235.001,181.77C234.857,183.82 234.873,185.882 234.674,187.928C234.562,189.076 234.247,190.195 234.066,191.334C233.812,192.933 233.358,193.894 232.873,194.527C232.154,195.464 231.267,195.98 230.018,196.142C229.309,196.234 228.331,196.136 226.954,196.145C225.976,196.151 224.998,196.186 224.02,196.186C222.923,196.186 221.824,196.2 220.728,196.141C218.349,196.014 215.99,195.606 213.61,195.495C209.578,195.307 205.543,195.224 201.509,195.092C197.164,194.95 192.816,194.878 188.474,194.673C178.14,194.185 167.817,193.021 157.473,192.755C155.82,192.712 154.067,193.293 152.394,193.472C150.673,193.657 149.019,193.513 147.498,192.752C146.37,192.188 145.411,190.906 145.109,188.965C144.796,186.956 145.204,183.888 145.416,182.599C146.45,176.318 145.96,164.619 146.17,158.239C146.8,139.03 147.295,123.351 145.072,103.859C145.068,103.823 145.064,103.787 145.061,103.75ZM151.065,105.621C153.012,124.313 152.542,139.739 151.928,158.458C151.711,165.067 152.16,177.18 151.089,183.685C150.982,184.331 150.785,185.586 150.748,186.786C150.743,186.95 150.749,187.153 150.759,187.348C151.342,187.403 151.957,187.287 152.581,187.185C154.256,186.913 155.978,186.501 157.611,186.544C167.993,186.811 178.354,187.976 188.726,188.466C193.043,188.67 197.364,188.741 201.683,188.882C205.742,189.015 209.802,189.099 213.859,189.288C216.251,189.399 218.623,189.808 221.014,189.936C222.015,189.99 223.018,189.973 224.02,189.973C224.987,189.973 225.953,189.938 226.92,189.932C227.424,189.929 227.99,189.938 228.445,189.949C228.611,189.059 228.857,188.181 228.944,187.28C229.137,185.294 229.117,183.293 229.256,181.303C229.438,178.694 229.751,176.095 229.907,173.484C230.077,170.633 230.194,167.778 230.236,164.923C230.304,160.321 230.236,155.719 230.236,151.117C230.236,138.936 230.121,126.798 230.879,114.637C231.071,111.559 231.338,108.485 231.493,105.404C231.498,105.304 231.53,104.604 231.558,103.977C229.846,103.187 227.739,102.801 225.533,102.574C220.761,102.082 215.536,102.447 211.94,102.394C201.639,102.244 190.876,101.895 180.543,102.659C170.667,103.39 160.925,105.252 151.065,105.621Z"/>
    </g>
</svg>
