<?xml version="1.0" encoding="UTF-8" standalone="no"?>
<!DOCTYPE svg PUBLIC "-//W3C//DTD SVG 1.1//EN" "http://www.w3.org/Graphics/SVG/1.1/DTD/svg11.dtd">
<svg width="100%" height="100%" viewBox="0 0 1080 1080" version="1.1" xmlns="http://www.w3.org/2000/svg" xmlns:xlink="http://www.w3.org/1999/xlink" xml:space="preserve" xmlns:serif="http://www.serif.com/" style="fill-rule:evenodd;clip-rule:evenodd;stroke-linejoin:round;stroke-miterlimit:2;">
    <g transform="matrix(1.6322,0,0,1.6322,-334.097,-324.184)">
        <path d="M279.438,429.931C280.128,428.574 281.789,428.033 283.145,428.722C284.502,429.412 285.043,431.073 284.354,432.429C281.403,438.233 280.158,450.488 279.682,465.415C278.535,501.462 282.444,552.669 282.444,569.838C282.444,571.359 281.209,572.595 279.687,572.595C278.165,572.595 276.93,571.359 276.93,569.838C276.93,552.641 273.022,501.347 274.171,465.24C274.68,449.244 276.277,436.15 279.438,429.931Z"/>
    </g>
    <g transform="matrix(1.6322,0,0,1.6322,-334.097,-324.184)">
        <path d="M287.329,435.634C285.808,435.634 284.572,434.398 284.572,432.877C284.572,431.355 285.808,430.12 287.329,430.12C382.95,430.12 478.773,434.8 574.421,437.072C613.375,437.997 653.317,443.224 691.623,443.224C693.145,443.224 694.38,444.459 694.38,445.981C694.38,447.502 693.145,448.738 691.623,448.738C653.274,448.738 613.288,443.511 574.29,442.584C478.686,440.313 382.907,435.634 287.329,435.634Z"/>
    </g>
    <g transform="matrix(1.6322,0,0,1.6322,-334.097,-324.184)">
        <path d="M285.849,577.088C284.327,577.088 283.092,575.853 283.092,574.331C283.092,572.809 284.327,571.574 285.849,571.574C331.218,571.574 377.261,572.55 422.661,570.8C472.758,568.87 522.329,564.385 572.682,566.444C617.247,568.266 661.994,580.965 706.287,580.965C707.809,580.965 709.044,582.2 709.044,583.722C709.044,585.243 707.809,586.479 706.287,586.479C661.92,586.479 617.096,573.779 572.457,571.953C522.251,569.9 472.824,574.385 422.874,576.31C377.403,578.063 331.288,577.088 285.849,577.088Z"/>
    </g>
    <g transform="matrix(1.6322,0,0,1.6322,-334.097,-324.184)">
        <path d="M216.798,398.001C216.902,398.704 217.047,399.599 217.215,400.372C217.905,403.554 218.843,407.124 218.89,407.958C219.877,425.668 220.587,443.494 221.284,461.166C222.629,495.252 227.711,529.422 227.711,563.394C227.711,570.722 228.913,579.443 227.673,586.763C227.65,586.897 227.552,587.872 227.461,588.793C242.847,591.238 277.14,591.578 292.176,588.433C291.727,586.852 291.208,585.025 291.188,584.946C289.733,579.137 287.585,572.276 287.585,566.416C287.585,564.894 288.821,563.659 290.342,563.659C291.864,563.659 293.099,564.894 293.099,566.416C293.099,571.858 295.185,578.211 296.537,583.606C296.574,583.755 298.082,588.754 298.263,589.787C298.679,592.158 296.666,592.992 296.319,593.092C281.914,597.249 239.526,596.879 224.127,593.8C223.398,593.654 222.284,593.178 221.9,591.607C221.807,591.228 221.753,590.435 221.815,589.493C221.911,588.057 222.193,586.098 222.236,585.842C223.427,578.811 222.197,570.434 222.197,563.394C222.197,529.494 217.116,495.397 215.774,461.383C215.079,443.741 214.37,425.945 213.384,408.265C213.319,407.101 211.329,400.293 211.144,397.367C211.075,396.267 211.249,395.435 211.46,394.955C211.843,394.081 212.456,393.59 213.106,393.322C215.84,392.199 219.932,392.221 224.356,392.815C230.024,393.575 236.315,395.203 240.244,395.203C252.698,395.203 252.248,395.59 264.281,396.127C274.202,396.569 279.715,398.372 282.86,401.596C284.921,403.708 286.097,406.459 286.671,410.071C287.395,414.622 287.154,420.732 287.154,428.835C287.154,430.356 285.918,431.592 284.397,431.592C282.875,431.592 281.64,430.356 281.64,428.835C281.64,422.334 281.824,417.165 281.48,413.088C281.196,409.723 280.632,407.208 278.913,405.446C276.42,402.89 271.903,401.986 264.035,401.635C252.125,401.104 252.571,400.717 240.244,400.717C236.136,400.717 229.55,399.075 223.622,398.28C221.09,397.94 218.698,397.712 216.798,398.001Z"/>
    </g>
    <g transform="matrix(1.6322,0,0,1.6322,-334.097,-324.184)">
        <path d="M833.597,284.825C833.869,282.458 835.083,281.973 836.297,282.356C837.587,281.949 838.878,282.523 839.037,285.295C839.048,285.374 839.054,285.451 839.054,285.527L839.054,347.828C839.054,381.279 840.288,413.181 843.786,446.473C853.41,538.061 856.141,634.059 843.045,725.599C842.279,730.952 837.821,775.029 834.437,794.052C833.812,797.567 833.208,800.268 832.679,801.802C832.267,802.994 831.763,803.736 831.396,804.096C830.816,804.667 828.82,805.868 827.052,803.674C825.837,802.165 821.138,792.666 817.442,784.831C812.351,774.037 806.314,764.225 800.162,753.957C776.515,714.493 761.934,670.229 743.091,628.492C741.189,624.278 733.863,606.183 726.341,595.713C724.854,593.644 723.373,591.886 721.92,590.656C720.915,589.806 720.007,589.172 719.09,589.172C717.569,589.172 716.333,587.937 716.333,586.415C716.333,584.893 717.569,583.658 719.09,583.658C720.753,583.658 722.537,584.285 724.339,585.559C726.436,587.041 728.648,589.473 730.819,592.495C738.565,603.277 746.158,621.884 748.116,626.223C766.872,667.767 781.354,711.841 804.892,751.123C811.139,761.55 817.26,771.518 822.429,782.479C824.312,786.47 826.778,791.354 828.639,794.985C828.768,794.369 828.894,793.731 829.009,793.087C832.383,774.115 836.823,730.157 837.586,724.819C850.619,633.723 847.88,538.192 838.302,447.049C834.783,413.563 833.54,381.475 833.54,347.828L833.54,291.937C824.933,299.104 817.122,306.905 810.343,315.934C782.107,353.544 770.662,370.774 733.898,403.122C728.894,407.525 713.92,421.091 705.392,432.16C703.317,434.853 701.63,437.38 700.624,439.572C700.103,440.708 699.757,441.709 699.757,442.564C699.757,444.085 698.522,445.321 697,445.321C695.478,445.321 694.243,444.085 694.243,442.564C694.243,439.241 696.841,434.223 701.024,428.794C709.775,417.437 725.121,403.5 730.256,398.982C766.661,366.949 777.972,349.867 805.934,312.624C813.718,302.256 822.803,293.437 832.88,285.356C833.016,285.247 833.333,285.016 833.597,284.825Z"/>
    </g>
    <g transform="matrix(1.6322,0,0,1.6322,-334.097,-324.184)">
        <path d="M333.622,463.717C337.663,455.685 341.429,447.489 344.758,438.949C345.31,437.531 346.91,436.829 348.328,437.382C349.745,437.934 350.448,439.534 349.895,440.952C347.715,446.544 345.351,451.991 342.847,457.342C342.968,457.573 343.074,457.844 343.155,458.162C343.422,459.217 343.559,463.836 340.329,477.216C338.185,486.093 335.88,495.081 333.314,503.97C342.497,488.359 353.875,473.543 366.344,461.07C369.573,457.84 377.444,448.334 384.177,442.894C387.638,440.098 390.961,438.417 393.383,438.397C394.869,438.384 395.871,438.87 396.561,439.495C397.56,440.4 398.119,441.844 397.82,443.792C397.596,445.258 396.805,447.23 395.834,449.304C394.668,451.79 393.21,454.468 392.816,456.368C391.533,462.555 390.315,468.757 388.907,474.917C387.448,481.307 385.884,487.729 384.18,494.134C386.399,490.91 388.776,487.768 391.345,484.719C395.374,479.936 399.8,475.501 404.107,470.967C405.01,470.015 412.721,462.339 414.24,461.439C415.599,460.634 416.675,461.055 417.109,461.274C417.955,461.7 418.66,462.437 418.648,463.808C418.638,464.99 418.288,466.665 417.567,468.73C416.314,472.318 413.909,477.344 410.806,483.19C419.579,473.638 426.058,468.315 428.598,466.829C429.845,466.098 430.794,466.01 431.232,466.045C432.052,466.113 432.632,466.46 433.055,466.883C433.316,467.144 434.007,468.048 433.914,469.683C433.713,473.244 430.416,488.793 430.259,489.695C428.248,501.234 424.824,512.499 421.588,523.757C423.007,520.963 424.433,518.173 425.859,515.383C428.581,510.054 452.376,477.995 466.047,467.481C468.389,465.679 470.497,464.478 472.198,463.97C473.968,463.441 475.471,463.575 476.658,464.159C477.467,464.556 478.201,465.254 478.685,466.402C479.201,467.626 479.447,469.774 479.158,472.859C478.385,481.111 474.062,497.652 466.177,522.345C466.076,522.662 465.972,522.977 465.865,523.291C471.086,515.445 475.772,506.825 480.808,499.626C490.71,485.472 505.087,475.468 518.864,465.442C523.345,462.181 533.166,455.036 541.537,451.36C545.575,449.587 549.342,448.648 552.186,448.971C554.251,449.205 555.637,449.98 556.559,450.987C557.899,452.451 558.398,454.622 557.858,457.352C557.298,460.187 555.561,463.861 553.482,467.708C550.688,472.878 547.258,478.416 546.057,482.454C544.78,486.748 543.05,493.03 540.968,500.072C548.779,489.903 557.775,480.922 569.016,473.132C570.607,472.029 572.451,470.159 574.307,468.614C575.852,467.327 577.423,466.253 578.875,465.713C581.245,464.831 583.426,465.083 585.287,466.944C587.172,468.83 587.251,471.198 586.066,473.8C585.123,475.874 583.097,478.176 582.37,480.172C577.44,493.711 577.693,493.305 573.032,507.277C572.94,507.552 572.849,507.827 572.758,508.102C579.21,497.289 588.463,483.243 596.992,473.659C600.457,469.765 603.822,466.594 606.84,464.589C609.203,463.02 611.421,462.138 613.361,461.969C614.597,461.86 615.595,462.122 616.414,462.592C617.554,463.247 618.409,464.365 618.874,465.93C619.313,467.407 619.394,469.42 619.281,471.567C619.145,474.166 618.738,477.004 618.819,478.976C619.486,495.347 618.403,510.378 615.074,526.369C614.618,528.556 613.706,530.821 612.817,533.085C614.108,530.931 615.635,528.385 617.409,525.431C627.55,508.548 640.489,494.263 654.727,480.666C658.585,476.982 663.728,473.134 664.755,472.477C667.102,470.976 668.773,473.257 668.882,473.475C670.354,476.419 670.911,481.039 670.865,486.05C670.801,492.923 669.71,500.57 669.161,504.931C668.783,507.934 668.088,512.752 667.248,517.269C670.654,511.745 674.486,506.454 678.613,501.748C682.282,497.565 687.417,491.445 690.093,489.535C691.914,488.236 693.514,488.377 694.348,488.787C695.47,489.339 696.512,490.717 696.65,492.99C696.892,497.005 694.38,505.665 694.177,507.34C692.601,520.284 690.66,532.953 687.587,545.691C687.187,547.349 686.828,549.23 686.518,551.092C689.004,546.538 690.322,545.046 695.239,538.017C696.471,536.255 700.982,528.932 704.876,524.033C706.845,521.555 708.762,519.684 710.105,519.002C711.016,518.539 711.826,518.628 712.528,518.947C713.063,519.19 713.747,519.666 714.062,520.72C714.138,520.974 714.229,521.498 714.179,522.192C714.108,523.186 713.758,525.129 713.692,525.519C713.047,529.336 713.052,532.548 712.32,536.449C711.366,541.535 710.397,546.787 709.312,551.931C711.577,548.542 713.493,545.748 713.937,544.826C717.169,538.115 723.341,522.642 730.218,506.95C727.769,509.828 725.839,512.055 724.882,513.131C724.323,513.76 723.962,514.102 723.891,514.158C722.047,515.62 720.538,514.27 720.219,513.952C715.296,509.029 716.111,502.957 719.852,496.413C724.352,488.541 733.338,479.851 736.624,472.146C741.18,461.459 757.814,423.522 767.383,397.145C770.898,387.456 773.498,379.405 774.033,375.023C774.104,373.935 774.128,373.508 774.137,373.379C774.238,371.767 775.175,371.347 775.2,371.327C776.093,370.634 776.994,370.603 777.848,370.919C778.173,371.039 779.343,371.435 779.612,373.054C779.617,373.083 779.649,373.277 779.649,373.552C779.649,373.987 779.618,374.481 779.558,375.03C779.471,376.373 779.302,378.898 778.989,383.262C778.909,384.378 778.635,386.237 778.289,388.273C778.819,383.241 779.254,378.312 779.477,375.681C778.923,379.667 777.066,386.109 774.389,393.877C774.539,398.309 774.749,401.122 774.999,402.68C770.984,415.501 764.811,427.76 760.899,440.652C759.71,444.572 758.876,446.822 758.084,449.014C768.651,431.253 777.874,412.825 787.883,394.673C791.158,388.733 796.998,380.411 801.143,372.079C802.388,369.575 803.486,367.075 804.287,364.649C804.762,362.76 805.09,361.15 805.645,357.642C805.648,357.516 805.649,357.391 805.649,357.266L811.163,357.266L811.163,357.83C811.163,357.94 811.157,358.05 811.144,358.16C811.037,360.6 810.505,363.195 809.663,365.866C809.216,367.642 808.638,369.693 807.641,373.68C806.362,378.792 805.292,383.96 803.804,389.014C797.005,412.094 788.032,434.858 780.02,457.545C779.728,458.372 778.631,461.162 777.525,464.47C779.328,460.179 781.165,455.896 783.026,451.616C788.905,438.1 795.204,422.943 801.981,409.721C805.221,403.401 812.743,386.696 814.543,384.674C815.613,383.472 816.772,383.497 817.344,383.593C818.167,383.732 818.939,384.154 819.43,385.156C819.603,385.508 819.912,386.663 819.423,388.736C813.662,413.159 801.466,436.008 790.612,458.438C789.53,460.674 782.426,472.276 778.061,477.629C763.881,512.728 752.47,548.488 748.988,586.595C748.855,588.052 747.375,596.812 747.508,604.718C747.558,607.638 747.817,610.435 748.513,612.62C748.547,612.726 748.581,612.83 748.616,612.932C749.065,612.301 749.554,611.583 749.975,610.889C753.169,605.632 757.004,597.865 757.398,596.919C768.326,570.683 770.36,538.239 784.411,513.634C785.197,512.257 785.989,511.737 786.356,511.569C787.19,511.187 787.924,511.248 788.545,511.473C789.235,511.724 790.226,512.338 790.451,513.918C790.549,514.602 790.367,516.381 789.893,518.671C789.006,522.959 787.279,529.537 786.624,532.718C785.485,538.246 784.229,543.755 782.744,549.201C775.271,576.601 765.428,603.272 758.245,630.794C755.755,640.331 754.854,644.224 753.077,653.993C752.655,656.313 752.203,658.631 751.859,660.963C752.156,660.681 752.429,660.387 752.663,660.077C763.96,645.12 765.814,640.886 776.162,624.795C791.254,601.327 806.347,577.859 821.659,554.535C826.846,546.633 836.33,535.524 843.928,524.874C844.295,524.064 844.681,523.256 845.085,522.45C848.95,514.752 853.457,506.886 854.687,505.305C855.951,503.68 857.494,503.958 857.861,504.055C858.362,504.187 860.625,505.172 859.733,507.938C857.943,513.482 853.852,520.16 849.003,527.03C844.887,536.027 843.067,545.319 840.674,554.937C834.44,579.99 826.888,605.712 824.869,631.659C825.823,629.293 826.684,626.889 827.577,624.498C829.32,619.65 831.114,614.818 832.92,609.992C834.26,606.413 838.016,596.024 839.833,592.243C840.794,590.241 843.941,585.402 844.525,584.816C845.944,583.391 847.408,584.041 847.846,584.274C848.083,584.399 850.132,585.761 848.866,588.384C843.419,599.671 838.609,611.633 833.95,623.286C833.54,624.312 833.146,625.344 832.758,626.378C827.204,641.822 822.182,657.439 819.057,673.599C818.243,677.803 816.588,685.624 815.939,691.14C815.842,691.96 815.793,692.868 815.769,693.653C815.794,693.616 815.819,693.578 815.844,693.54C816.134,693.093 816.415,692.594 816.692,692.064C818.358,688.869 819.892,684.722 821.623,682.417C830.248,670.941 832.81,657.026 839.077,644.384C839.903,642.717 840.73,642.158 840.919,642.061C841.878,641.565 842.694,641.704 843.334,641.99C843.744,642.174 845.324,643.053 844.917,645.238C844.569,647.106 839.866,659.703 838.035,664.551C835.036,672.487 831.259,680.108 827.786,687.848C826.143,691.509 824.02,697.384 822.241,702.815C822.643,703.037 823.125,703.415 823.439,704.135C823.515,704.31 823.61,704.574 823.656,704.927C823.696,705.243 823.651,706.208 823.581,706.605C821.51,718.247 821.425,717.699 819.896,729.296C819.629,731.322 819.32,736.621 819.208,737.352C818.859,739.63 816.785,739.769 816.531,739.775C815.81,739.794 814.559,739.659 813.905,738.057C813.869,737.97 813.682,737.495 813.682,736.508C813.682,736.208 813.73,735.919 813.819,735.649C813.943,733.923 814.229,730.1 814.429,728.576C815.108,723.429 815.505,720.649 815.914,718.154C815.755,718.137 815.613,718.11 815.492,718.082C814.69,717.897 813.808,717.412 813.41,716.126C813.331,715.871 813.254,715.496 813.264,715.001C813.275,714.446 813.448,713.366 813.801,711.915C814.5,709.044 815.909,704.38 817.515,699.573C816.753,700.009 815.958,700.24 815.148,700.271C814.147,700.309 813.075,700.056 811.957,699.323C811.466,699.002 810.988,698.502 810.657,697.737C810.383,697.102 810.178,696.071 810.17,694.724C810.137,689.671 812.573,678.085 813.643,672.552C815.308,663.942 817.501,655.483 820.023,647.122C819.429,646.723 818.838,645.976 818.838,644.56C818.838,613.799 827.95,583.235 835.323,553.605C836.364,549.423 837.309,545.303 838.371,541.241C833.702,547.29 829.287,552.963 826.269,557.561C810.966,580.87 795.882,604.324 780.8,627.777C770.35,644.026 768.47,648.297 757.063,663.4C756.003,664.804 754.34,665.981 752.909,667.21C752.535,667.532 752.182,667.856 751.901,668.211C751.717,668.443 751.543,668.676 751.543,668.977C751.543,672.079 748.42,672.093 748.349,672.082C748.208,672.06 746.197,671.737 746.019,669.515C745.971,668.92 745.873,664.637 746.043,663C746.392,659.644 747.048,656.326 747.652,653.007C749.46,643.066 750.377,639.105 752.909,629.401C755.208,620.594 757.779,611.873 760.458,603.187C758.144,607.733 754.411,614.689 752.062,617.649C751.012,618.973 749.977,619.673 749.326,619.887C748.087,620.295 747.074,620.004 746.257,619.287C744.041,617.342 742.69,613.534 742.226,608.948C741.317,599.975 743.336,587.861 743.497,586.094C746.869,549.187 757.549,514.442 771.024,480.385C770.991,480.355 770.959,480.324 770.927,480.292C770.223,479.6 769.679,478.555 769.481,477.15C769.303,475.898 769.393,474.235 769.71,472.363C770.753,466.202 774.245,457.34 774.82,455.709C782.739,433.287 791.605,410.791 798.358,387.986C796.213,391.445 794.2,394.635 792.711,397.336C780.59,419.318 769.604,441.698 756.035,462.83C757.314,462.467 758.225,463.164 758.546,463.436C759.08,463.891 759.667,464.66 759.512,465.941C759.478,466.216 759.346,466.747 759.005,467.391C758.533,468.28 757.384,469.975 756.952,470.784C755.773,472.993 754.945,475.398 753.575,477.495C751.451,480.744 747.861,485.447 743.907,490.397C733.908,510.734 723.47,537.74 718.905,547.219C718.028,549.038 711.553,558.035 707.739,564.704C706.855,566.249 706.122,567.653 705.678,568.782C705.487,569.746 705.231,570.932 705.132,571.143C704.349,572.809 702.929,572.797 702.348,572.74C702.037,572.71 699.836,572.44 699.836,569.824C699.836,569.274 699.994,568.527 700.291,567.632C700.347,567.324 700.398,567.043 700.427,566.878C701.432,561.115 701.491,561.444 702.785,555.905C704.345,549.221 705.635,542.179 706.901,535.432C707.299,533.31 707.475,531.394 707.659,529.472C704.268,534.067 700.806,539.679 699.757,541.178C693.351,550.335 693.266,549.744 688.198,559.85C686.908,562.422 685.843,563.782 685.168,564.318C683.86,565.355 682.687,565.229 681.822,564.864C681.044,564.536 680.01,563.661 679.738,561.801C679.341,559.087 680.549,551.35 682.226,544.398C685.249,531.868 687.153,519.406 688.703,506.674C688.852,505.451 690.297,500.41 690.914,496.318C690.921,496.274 690.927,496.23 690.933,496.185C688.402,498.775 685.238,502.557 682.759,505.384C675.782,513.339 669.697,523.054 665.179,532.646C663.214,536.815 661.638,541.401 659.898,545.704C659.651,546.748 659.375,547.787 659.077,548.818C658.29,551.542 655.713,550.898 655.52,550.836C655.146,550.715 653.553,550.147 653.608,548.108C653.617,547.762 654.07,545.375 654.427,544.515C654.494,544.354 654.561,544.192 654.627,544.03C654.698,543.722 654.766,543.413 654.831,543.104C657.03,532.658 657.407,533.208 660.242,523.366C661.727,518.211 663.101,508.924 663.69,504.242C664.221,500.028 665.289,492.64 665.351,485.999C665.373,483.558 665.284,481.223 664.944,479.24C663.017,480.743 660.463,482.813 658.535,484.654C644.656,497.907 632.021,511.813 622.136,528.27C615.577,539.19 613.061,543.638 612.001,545.226C611.477,546.01 611.077,546.395 610.831,546.584C609.956,547.259 609.183,547.275 608.59,547.187C607.821,547.072 606.949,546.662 606.383,545.547C604.934,542.699 604.99,539.621 605.82,536.445C606.785,532.745 608.917,528.889 609.675,525.245C612.91,509.71 613.958,495.106 613.309,479.2C613.209,476.739 613.803,472.989 613.817,469.908C613.821,469.181 613.791,468.5 613.683,467.909C613.661,467.785 613.615,467.628 613.572,467.494C612.455,467.666 611.231,468.292 609.891,469.182C607.192,470.975 604.21,473.842 601.111,477.324C588.522,491.472 574.314,515.61 570.456,523.607C567.668,529.383 560.962,544.583 559.557,546.499C558.291,548.227 556.675,547.837 556.165,547.651C555.562,547.429 554.983,547.018 554.605,546.229C554.472,545.952 554.305,545.511 554.32,544.862C554.327,544.544 554.431,543.842 554.76,542.713C555.843,538.995 557.13,535.339 558.435,531.693C560.278,526.546 562.355,521.485 564.197,516.338C565.477,512.763 566.6,509.134 567.801,505.533C572.486,491.487 572.233,491.896 577.189,478.286C577.859,476.446 579.468,474.339 580.603,472.368C580.838,471.96 581.047,471.561 581.19,471.174C581.232,471.061 581.271,470.892 581.296,470.78C581.146,470.718 580.975,470.815 580.798,470.881C580.158,471.119 579.5,471.558 578.822,472.067C576.519,473.795 574.141,476.289 572.156,477.665C556.193,488.727 544.972,502.321 535.148,518.373C533.507,523.091 531.759,527.708 529.929,531.912C526.728,539.267 523.227,545.385 519.669,548.826C517.862,550.574 516.263,549.618 515.839,549.324C515.262,548.923 514.543,548.175 514.638,546.782C514.658,546.495 514.773,545.929 515.08,545.22C515.603,544.014 516.904,541.668 517.379,540.57C521.84,530.264 521.651,530.552 527.431,520.563C528.324,519.019 529.227,517.496 530.141,515.994C534.754,502.647 538.49,488.554 540.772,480.882C542.564,474.857 549.001,465.585 551.637,458.887C552.07,457.787 552.391,456.776 552.517,455.882C552.555,455.611 552.574,455.356 552.563,455.118C552.556,454.961 552.591,454.806 552.492,454.711C552.297,454.521 551.971,454.496 551.564,454.449C548.664,454.12 544.6,455.832 540.349,458.056C533.236,461.776 525.795,467.218 522.108,469.901C508.82,479.571 494.877,489.134 485.327,502.786C477.319,514.233 470.112,529.157 460.423,539.169C459.341,540.287 458.333,540.284 457.874,540.25C457.173,540.198 456.592,539.923 456.114,539.461C455.755,539.114 455.395,538.602 455.269,537.828C455.211,537.474 455.21,536.796 455.436,535.928C455.814,534.485 456.945,531.688 457.379,530.399C458.481,527.127 459.874,523.956 460.924,520.668C468.627,496.547 472.913,480.406 473.668,472.344C473.774,471.221 473.723,470.029 473.67,469.286C473.356,469.388 473.021,469.534 472.664,469.715C470.34,470.888 467.43,473.31 464.208,476.415C450.95,489.193 433.065,513.396 430.769,517.891C426.306,526.627 421.831,535.36 417.615,544.218C416.826,545.876 415.241,550.351 414.863,550.925C413.803,552.536 412.328,552.275 411.786,552.13C411.492,552.051 409.322,551.292 409.812,548.538C413.38,528.488 421.291,509.042 424.827,488.748C424.937,488.117 426.656,480.087 427.675,474.376C424.496,477.047 419.966,481.339 414.496,487.326C404.022,498.789 395.307,511.862 386.717,524.768C380.75,534.787 375.53,543.652 372.821,549.071C372.311,550.162 371.858,551.123 371.741,551.362C370.78,553.31 368.831,552.927 368.777,552.918C367.984,552.783 367.294,552.377 366.827,551.537C366.744,551.386 366.181,550.604 366.633,549.296C366.645,549.263 366.716,549.077 366.881,548.711C367.125,548.174 367.407,547.583 367.725,546.943C368.302,545.713 368.995,544.234 369.332,543.508C374.083,533.271 374.047,533.839 380.363,524.363C380.997,523.411 381.631,522.458 382.267,521.504C389.803,508.845 398.433,494.477 404.708,482.893C406.622,479.36 408.314,476.093 409.679,473.223C408.884,473.989 408.293,474.565 408.105,474.764C403.873,479.219 399.521,483.573 395.562,488.272C388.194,497.017 382.484,506.559 377.514,516.64C374.418,526 370.92,535.2 366.899,544.085C365.822,546.466 363.819,545.981 363.411,545.859C362.778,545.668 361.705,545.167 361.452,543.593C361.415,543.363 361.39,542.879 361.474,542.231C361.629,541.034 362.154,538.616 362.46,537.567C363.691,533.338 366.679,526.967 368.398,523.114C369.689,520.22 371.017,517.362 372.401,514.545C376.831,501.097 380.418,487.319 383.532,473.689C384.931,467.565 386.141,461.4 387.416,455.249C387.953,452.66 390.094,448.76 391.489,445.533C391.646,445.17 391.797,444.746 391.929,444.339C391.721,444.437 391.506,444.548 391.284,444.667C390.148,445.277 388.92,446.151 387.642,447.183C381.064,452.498 373.399,461.812 370.244,464.968C353.576,481.641 338.91,502.612 329.026,523.984C326.468,529.517 324.143,537.808 321.183,545.108C319.051,550.368 316.568,555.123 313.558,558.233C312.643,559.178 311.802,559.353 311.511,559.389C310.693,559.49 310.048,559.256 309.528,558.879C309.011,558.505 308.452,557.895 308.377,556.787C308.36,556.536 308.39,555.862 308.811,554.801C309.489,553.096 311.56,548.607 314.88,539.873C317.098,534.036 319.601,528.307 321.671,522.416C326.968,507.344 331.217,491.459 334.969,475.922C335.412,474.088 335.79,472.436 336.112,470.949C329.974,482.764 323.312,494.304 316.634,506.138C311.02,516.086 310.951,515.666 305.813,525.932C305.342,526.872 304.624,529.112 304.162,530.17C303.862,530.857 303.531,531.31 303.338,531.514C302.405,532.499 301.394,532.499 300.707,532.358C300.192,532.252 298.428,531.772 298.428,529.299C298.428,526.143 301.453,518.82 306.102,509.975C314.086,494.783 326.6,474.604 333.622,463.717ZM778.289,388.273C777.263,398.034 775.881,408.182 774.999,402.68C775.499,401.081 775.966,399.474 776.391,397.856C776.743,396.515 777.642,392.084 778.289,388.273ZM774.131,559.316C775.267,555.472 776.369,551.618 777.424,547.75C778.16,545.051 778.838,542.337 779.473,539.612C777.466,546.04 775.772,552.666 774.131,559.316ZM751.235,452.063C746.994,462.04 743.452,470.19 741.696,474.308C738.34,482.18 729.236,491.109 724.639,499.15C722.933,502.132 721.803,504.952 722.525,507.451C726.107,503.32 733.072,495.122 739.207,487.462C739.977,485.902 740.745,484.382 741.506,482.914C744.618,476.913 747.683,471.76 750.468,468.093C750.047,468.018 749.661,467.843 749.306,467.581C748.909,467.287 748.469,466.82 748.248,466.035C748.158,465.716 748.076,465.082 748.178,464.24C748.352,462.812 749.052,459.977 749.377,458.709C750.105,455.873 750.7,453.784 751.235,452.063Z"/>
    </g>
    <g transform="matrix(1.6322,0,0,1.6322,-334.097,-324.184)">
        <path d="M310.703,475.382C311.941,474.328 313.386,473.098 315.142,471.594C316.297,470.604 318.039,470.738 319.029,471.894C320.019,473.049 319.885,474.791 318.729,475.781C312.578,481.052 310.295,482.901 307.333,485.66C306.934,486.747 306.527,487.835 306.118,488.914C304.131,494.156 302.073,499.16 301.045,502.639C302.551,501.327 304.448,499.468 306.81,496.982C309.631,494.012 312.296,490.897 315.026,487.844C319.054,483.34 324.427,478.109 327.841,472.966C328.683,471.699 330.395,471.353 331.663,472.194C332.931,473.036 333.277,474.749 332.435,476.016C328.884,481.365 323.327,486.835 319.136,491.52C316.369,494.614 313.667,497.769 310.808,500.779C305.173,506.712 301.683,509.363 299.92,509.93C298.518,510.381 297.464,510.125 296.699,509.676C295.707,509.094 294.81,507.88 294.866,505.791C294.911,504.117 295.66,501.315 296.855,497.902C297.194,496.935 297.568,495.911 297.966,494.844C295.059,497.698 294.535,498.025 290.302,501.73C289.902,502.08 289.242,502.985 288.815,503.372C288.24,503.893 287.668,504.115 287.294,504.199C286.292,504.423 285.483,504.15 284.834,503.608C284.401,503.245 283.799,502.599 283.792,501.316C283.783,499.619 284.746,496.858 286.387,493.726C289.6,487.591 295.278,479.533 297.371,475.894C301.994,467.86 305.206,463.04 305.837,462.191C307.542,459.898 309.971,461.619 310.093,461.739C311.454,463.077 312.197,465.401 311.998,468.515C311.873,470.463 311.399,472.811 310.703,475.382ZM302.617,482.523C303.807,479.232 304.883,475.997 305.615,473.112C305.66,472.935 305.703,472.76 305.745,472.586C304.659,474.364 303.437,476.409 302.151,478.644C300.725,481.123 297.613,485.671 294.775,490.246C295.16,489.865 295.585,489.442 296.059,488.968C298.988,486.042 300.959,484.098 302.617,482.523Z"/>
    </g>
    <g transform="matrix(1.6322,0,0,1.6322,-334.097,-324.184)">
        <path d="M350.912,504.988C355.673,498.679 359.458,493.754 360.945,492.072C362.248,490.598 363.594,490.906 364.253,491.156C364.911,491.405 366.044,492.078 366.132,493.886C366.199,495.279 364.71,501.247 363.263,507.777C360.942,518.245 359.251,528.787 356.967,539.263C356.36,542.047 355.726,544.758 355.049,547.431C357.406,543.075 359.56,538.613 362.329,534.458C367.67,526.441 388.5,502.912 405.264,489.485C409.7,485.932 413.867,483.078 417.406,481.346C420.116,480.019 422.528,479.337 424.488,479.32C426.103,479.307 426.916,480.085 427.384,480.889C427.754,481.525 427.974,482.429 427.667,483.547C427.502,484.152 427.091,484.978 426.575,485.832C426.135,486.559 425.577,487.329 425.38,487.883C424.215,491.165 423.029,494.441 421.805,497.702C416.936,510.665 412.574,523.766 407.844,536.782C418.852,518.082 429.1,498.823 440.629,480.448C441.759,478.646 450,467.369 452,465.125C453.071,463.923 454.179,463.828 454.419,463.824C455.216,463.811 455.86,464.077 456.387,464.526C456.902,464.963 457.515,465.781 457.471,467.172C457.438,468.208 456.746,470.545 455.63,473.373C453.412,478.992 449.64,487.016 448.798,489.297C442.338,506.809 437.164,526.198 432.936,544.409C432.456,546.475 431.059,549.105 430.057,551.534C430.814,549.998 431.567,548.429 432.381,547.378C438.463,539.536 443.763,531.116 449.318,522.891C455.748,513.372 472.217,484.48 488.167,467.234C495.513,459.291 502.903,453.858 509.163,453.144C510.297,453.015 511.114,453.439 511.716,454.159C512.077,454.591 512.623,455.541 512.307,457.046C511.524,460.772 500.813,480.315 499.825,482.222C495.546,490.481 487.125,505.926 481.395,520.322C478.924,526.531 476.925,532.523 476.065,537.591C477.014,536.117 477.938,534.711 478.674,533.871C484.939,526.713 484.136,526.796 489.941,519.066C494.345,513.201 514.049,490.082 528.528,477.234C533.098,473.179 537.202,470.136 540.199,468.808C542.021,468 543.587,467.773 544.783,467.968C545.585,468.098 546.832,468.532 547.076,470.324C547.09,470.431 547.138,471.017 546.878,471.94C546.056,474.853 541.291,489.446 540.456,491.951C537.351,501.256 529.961,516.898 524.542,531.105C522.755,535.791 521.173,540.309 520.062,544.361C521.343,542.011 522.575,539.786 523.518,538.407C527.535,532.533 533.669,521.108 536.303,516.393C547.517,496.316 557.65,472.311 572.95,454.86C574.612,452.964 576.267,453.669 576.774,453.945C577.402,454.288 578.135,454.935 578.252,456.237C578.283,456.582 578.237,457.261 577.986,458.133C577.512,459.779 576.191,463.004 575.759,464.504C571.413,479.618 571.517,479.16 568.231,494.758C566.657,502.231 557.836,528.26 553.593,546.571C552.536,551.135 551.716,555.171 551.439,558.211C553.744,556.446 557.239,553.52 561.923,548.916C569.595,541.373 576.789,530.696 582.781,522.302C591.071,510.688 598.952,494.813 608.166,480.092C617.686,464.88 628.65,450.925 642.694,443.672C644.244,442.871 645.373,443.08 646.038,443.363C646.969,443.758 647.678,444.497 647.918,445.736C648.078,446.556 647.835,448.198 647.054,450.164C645.882,453.117 643.612,457.375 642.922,459.703C641.641,464.026 640.427,468.369 639.206,472.709C632.181,497.685 624.902,522.445 618.776,547.678C618.351,549.428 616.293,561.186 616.579,568.076C616.595,568.473 616.644,568.908 616.705,569.323C617.771,568.295 619.237,566.824 620.545,565.313C633.946,549.833 661.744,510.64 666.249,505.378C669.128,502.015 683.3,488.809 686.999,486.115C686.842,486.159 686.703,486.195 686.584,486.223C684.833,486.624 683.815,485.782 683.554,485.521C683.115,485.083 682.744,484.465 682.725,483.565C682.717,483.212 682.814,482.424 683.404,481.416C685.661,477.562 699.742,460.721 702.839,456.375C713.267,441.741 719.798,424.914 729.573,409.981C730.808,408.094 732.559,408.7 732.885,408.817C733.162,408.917 735.331,409.988 734.531,412.469C733.879,414.491 726.943,430.449 722.449,441.682C718.469,451.627 713.867,461.371 709.006,471.013C720.682,464.633 730.636,456.191 739.975,446.244C743.664,437.007 747.058,427.708 750.32,418.547C754.397,407.094 761.143,384.151 762.928,379.668C763.441,378.379 764.105,377.794 764.311,377.653C764.861,377.277 765.392,377.171 765.843,377.164C766.67,377.15 768.228,377.517 768.845,379.601C769.673,382.4 769.418,396.632 769.574,399.896C770.838,426.454 767.709,451.056 765.72,477.444C765.388,481.839 762.813,488.918 762.39,493.864C762.327,494.605 762.314,495.283 762.406,495.868C762.424,495.982 762.466,496.126 762.506,496.246C763.198,495.537 764.579,494.083 765.697,492.67C769.545,487.802 774.633,480.336 777.714,475.648C779.989,466.232 782.358,457.287 782.659,456.209C783.727,452.386 784.688,449.434 785.802,446.518C794.093,410.316 806.024,375.154 819.811,340.721C821.447,336.635 832.376,310.143 835.282,304.897C835.79,303.981 836.26,303.456 836.495,303.26C837.208,302.664 837.898,302.575 838.382,302.583C839.271,302.597 840.117,302.933 840.821,303.752C841.305,304.315 841.821,305.424 842.052,307.017C842.823,312.328 841.497,325.707 841.265,327.248C837.86,349.876 832.429,373.702 824.8,395.215C824.236,396.805 823.352,397.365 822.81,397.6C822.036,397.935 821.263,397.941 820.487,397.631C820.006,397.439 819.432,397.057 818.937,396.368C818.843,396.238 818.72,396.038 818.585,395.804C818.156,396.871 817.703,398.158 817.241,399.569C814.607,407.612 811.757,419.48 811.616,419.865C806.935,432.651 801.062,445.534 794.495,457.85C793.589,463.414 792.234,469.295 790.603,475.279C785.11,495.425 776.541,516.784 772.272,530.754C771.785,532.347 766.739,550.239 763.829,562.266C768.103,554.535 772.711,544.379 773.874,542.125C786.407,517.849 798.628,493.291 809.659,468.334C810.414,466.626 811.355,466.136 811.582,466.04C812.344,465.716 813.023,465.77 813.609,465.979C814.124,466.162 815.57,466.845 815.468,468.894C815.393,470.411 812.512,480.593 811.449,484.538C808.43,495.748 805.858,507.077 802.778,518.271C799.425,530.458 787.679,564.067 783.857,589.636C782.564,598.286 782.111,605.966 783.4,611.393C785.044,609.21 787.189,605.703 789.704,601.568C799.495,585.477 803.706,566.818 808.213,548.776C809.644,543.047 810.329,537.15 811.736,531.416C811.988,530.388 812.192,528.124 812.498,527.012C812.736,526.145 813.126,525.565 813.414,525.264C814.257,524.386 815.215,524.218 816.148,524.426C816.701,524.55 817.607,524.874 818.252,526.154C818.482,526.611 818.727,527.496 818.745,528.799C818.769,530.524 818.495,533.476 817.985,537.276C815.201,558.02 805.438,605.225 804.022,611.508C801.568,622.406 798.763,633.224 796.339,644.129C795.531,647.768 794.936,650.849 794.5,653.369C796.587,649.873 798.805,645.445 801.059,640.435C803.829,629.204 807.259,618.424 809.45,609.674C810.942,603.714 816.301,583.908 819.136,575.727C819.959,573.351 821.183,568.257 822.161,565.021C822.731,563.135 823.353,561.758 823.729,561.29C824.312,560.563 824.971,560.3 825.467,560.196C826.307,560.019 827.104,560.174 827.838,560.757C828.184,561.031 828.96,561.822 829.092,563.631C829.869,574.307 821.402,604.612 811.66,629.387C809.918,633.819 808.127,638.072 806.341,642.01C805.172,646.782 804.13,651.631 803.363,656.435C801.701,666.844 801.319,677.031 803.959,685.649C804.215,686.481 804.479,687.146 804.776,687.651C804.798,687.689 804.825,687.73 804.853,687.771C805.073,687.599 805.361,687.36 805.561,687.141C806.393,686.23 807.237,684.953 808.092,683.455C813.241,674.433 818.327,658.003 819.047,656.323C820.243,653.536 821.5,650.765 822.43,647.879C822.708,647.017 822.69,645.036 822.842,644.057C822.971,643.233 823.245,642.656 823.444,642.362C824.279,641.133 825.377,640.928 826.421,641.154C826.908,641.26 827.847,641.544 828.517,642.872C828.67,643.175 828.885,643.761 828.859,644.654C828.83,645.637 828.449,647.877 827.801,650.979C825.715,660.981 820.903,680.764 818.744,695.124C817.871,700.938 817.401,705.807 817.846,708.608C818.28,711.342 818.794,713.386 819.404,714.858C819.782,715.771 820.096,716.408 820.559,716.696C820.697,716.781 820.834,716.654 820.992,716.586C821.48,716.378 821.974,716.025 822.488,715.601C825.195,713.369 828.083,709.395 830.736,706.698C831.987,705.426 833.123,705.342 833.715,705.397C834.863,705.503 835.903,706.094 836.338,707.632C836.525,708.291 836.486,709.817 836.045,711.735C835.372,714.671 833.952,719.074 833.613,721.316C833.031,725.16 833.752,734.398 832.344,740.541C831.527,744.109 829.907,746.741 827.647,747.861C826.284,748.537 824.628,747.979 823.952,746.616C823.276,745.253 823.834,743.597 825.197,742.921C825.76,742.642 826.067,742.005 826.37,741.269C826.881,740.029 827.187,738.485 827.398,736.813C828.133,730.976 827.666,723.764 828.161,720.491C828.302,719.562 828.625,718.266 829.006,716.856C827.395,718.611 825.795,720.175 824.291,721.075C821.927,722.49 819.667,722.634 817.648,721.379C816.656,720.762 815.665,719.729 814.814,718.066C813.879,716.238 813.035,713.47 812.4,709.473C811.9,706.324 812.309,700.842 813.292,694.305C813.945,689.956 814.84,685.114 815.828,680.194C813.933,684.395 811.916,688.185 810.003,690.438C807.867,692.955 805.554,693.815 803.677,693.396C801.967,693.015 799.951,691.388 798.687,687.264C796.098,678.813 796.088,668.972 797.441,658.819C795.702,661.456 794.07,663.463 792.609,664.672C791.912,665.248 791.187,665.376 790.55,665.323C789.858,665.265 789.119,664.994 788.517,664.197C788.299,663.909 787.856,663.186 787.829,661.77C787.792,659.847 788.385,654.501 790.957,642.932C793.382,632.022 796.188,621.2 798.643,610.297C799.27,607.516 801.543,596.666 804.116,583.666C801.529,590.866 798.417,597.856 794.415,604.435C791.359,609.456 788.74,613.589 786.858,615.859C785.67,617.291 784.585,618.11 783.821,618.416C782.826,618.815 781.95,618.746 781.209,618.446C780.493,618.156 779.801,617.612 779.345,616.595C776.633,610.551 776.662,600.474 778.404,588.821C782.259,563.023 794.079,529.104 797.462,516.808C799.275,510.22 800.911,503.584 802.567,496.954C794.926,512.994 786.916,528.884 778.773,544.655C777.196,547.71 769.384,564.976 764.44,571.798C763.332,573.327 762.286,574.401 761.463,574.94C760.664,575.464 759.905,575.657 759.261,575.668C758.362,575.683 757.556,575.357 756.929,574.527C756.663,574.175 756.176,573.173 756.33,571.525C756.951,564.871 766.316,531.377 766.999,529.142C769.291,521.64 772.829,512.002 776.461,501.567C776.429,501.567 776.396,501.567 776.363,501.566C775.41,501.551 773.304,500.708 773.339,497.66C773.356,496.22 773.786,493.516 774.453,490.15C772.029,493.532 769.635,496.696 767.814,498.747C766.697,500.005 765.728,500.892 765.044,501.331C764.24,501.846 763.52,501.995 762.994,501.999C761.39,502.012 760.179,501.563 759.253,500.87C757.459,499.527 756.598,496.875 756.896,493.394C757.318,488.465 759.891,481.41 760.221,477.029C761.339,462.203 762.828,447.947 763.679,433.583C762.806,436.273 761.589,439.017 760.173,441.75C758.991,444.029 757.673,446.304 756.329,448.532C756.486,448.623 756.638,448.731 756.786,448.857C757.161,449.179 757.907,450.003 757.907,451.78C757.907,454.745 756.333,458.918 753.845,463.429C751.824,467.093 749.219,471.039 746.633,474.739C745.118,478.344 743.729,482.004 742.41,485.739C737.078,500.837 730.709,515.559 724.463,530.321C723.448,533.366 722.405,536.389 721.321,539.38C719.177,545.297 716.788,551.122 714.483,556.977C714.058,558.057 713.304,559.36 712.424,560.745C710.691,565.831 709.246,570.342 708.664,571.612C707.809,573.478 706.251,573.578 705.885,573.572C703.704,573.536 702.594,572.557 702.013,571.465C701.524,570.546 701.364,569.239 701.879,567.656C702.355,566.192 703.511,564.232 704.872,562.18C705.652,561.003 706.506,559.786 707.274,558.625C708.442,555.285 709.724,551.733 710.848,548.887C713.564,542.012 716.421,535.187 719.305,528.372C722.075,520.072 724.646,511.61 727.287,503.163C717.65,517.805 707.799,532.286 698.167,546.957C690.99,557.89 683.442,567.235 674.615,576.993C671.309,580.648 667.925,584.231 664.555,587.826C664.095,588.316 663.317,589.521 662.814,590.051C662.261,590.634 661.699,590.913 661.338,591.028C660.25,591.376 659.366,591.104 658.659,590.53C658.232,590.183 657.589,589.531 657.577,588.183C657.528,582.518 659.637,574.737 662.859,565.913C665.751,557.993 669.525,549.185 673.26,540.311C672.643,539.983 672.154,539.455 671.828,538.69C671.519,537.964 671.383,536.61 671.779,534.834C673.097,528.929 680.013,514.914 680.328,514.281C682.469,509.977 684.676,505.686 686.914,501.399C687.016,500.846 687.108,500.302 687.19,499.765C687.584,497.184 687.752,494.814 687.593,492.713C682.39,497.175 672.71,506.31 670.438,508.964C665.931,514.228 638.12,553.435 624.714,568.921C622.195,571.832 620.13,573.943 618.775,574.962C617.567,575.869 616.526,576.135 615.882,576.139C614.622,576.146 613.536,575.633 612.682,574.536C611.822,573.431 611.19,571.201 611.07,568.305C610.762,560.899 612.961,548.259 613.418,546.378C619.559,521.08 626.855,496.256 633.898,471.216C635.126,466.851 636.347,462.484 637.636,458.137C638.134,456.456 639.447,453.778 640.589,451.301C629.566,458.607 620.732,470.406 612.84,483.017C603.564,497.838 595.615,513.812 587.269,525.505C581.107,534.137 573.678,545.092 565.788,552.848C555.392,563.069 550.812,565.413 549.994,565.714C547.332,566.696 546.343,564.226 546.247,563.873C545.392,560.705 546.265,553.768 548.222,545.326C552.456,527.053 561.264,501.079 562.836,493.621C565.596,480.52 565.994,478.603 568.561,469.599C558.003,485.057 549.923,503.315 541.117,519.081C538.431,523.889 532.165,535.531 528.07,541.52C526.242,544.193 523.318,550.123 521.092,553.805C519.792,555.956 518.515,557.424 517.762,557.861C516.312,558.704 515.103,558.398 514.171,557.636C513.661,557.22 512.88,556.246 512.88,554.257C512.88,548.143 515.644,538.962 519.39,529.14C524.779,515.012 532.138,499.46 535.225,490.205C535.817,488.432 538.406,480.519 540.122,475.124C537.836,476.575 535.131,478.747 532.188,481.359C517.991,493.957 498.669,516.626 494.35,522.377C488.417,530.279 489.227,530.186 482.823,537.503C481.42,539.105 479.331,542.775 477.687,545.021C476.536,546.594 475.359,547.574 474.634,547.851C473.492,548.289 472.514,548.09 471.701,547.534C471.121,547.138 470.355,546.337 470.197,544.671C469.573,538.098 472.236,528.425 476.272,518.283C482.076,503.701 490.595,488.051 494.929,479.686C495.596,478.399 501.39,466.886 504.67,460.367C500.73,462.488 496.527,466.316 492.215,470.978C476.462,488.011 460.238,516.575 453.887,525.978C448.265,534.302 442.894,542.819 436.739,550.757C435.947,551.778 435.286,553.435 434.544,554.894C433.844,556.268 433.075,557.503 432.251,558.317C430.657,559.89 428.838,560.381 426.719,559.357C424.354,558.214 423.508,556.267 423.727,553.772C423.852,552.345 424.429,550.651 425.183,548.913C426.048,546.919 427.175,544.84 427.565,543.161C431.844,524.732 437.087,505.112 443.625,487.388C443.92,486.59 444.57,485.092 445.388,483.24C445.355,483.291 445.325,483.337 445.299,483.378C433.517,502.159 423.077,521.866 411.788,540.949C411.258,541.844 406.365,551.28 403.452,555.056C402.715,556.012 402.025,556.679 401.511,557.023C400.831,557.476 400.192,557.625 399.679,557.642C398.703,557.675 398.041,557.332 397.563,556.929C397.13,556.565 396.809,556.098 396.628,555.515C396.484,555.052 396.421,554.428 396.586,553.701C396.734,553.05 397.311,552.021 397.474,551.416C399.736,543.013 399.587,543.359 402.654,534.919C407.393,521.878 411.764,508.751 416.643,495.763C417.842,492.569 419.004,489.361 420.145,486.146C420.041,486.196 419.936,486.246 419.83,486.298C416.585,487.887 412.78,490.53 408.712,493.788C392.403,506.851 372.114,529.716 366.918,537.515C363.079,543.277 360.437,549.635 356.767,555.471C355.483,557.512 352.459,562.025 350.776,564.08C350.099,564.906 349.504,565.433 349.172,565.64C347.894,566.439 346.836,566.103 346.212,565.759C345.746,565.502 344.129,564.312 345.046,561.671C347.768,553.837 349.792,546.288 351.579,538.089C353.864,527.606 355.558,517.058 357.879,506.584C358.054,505.798 358.23,505 358.406,504.207C347.663,518.315 328.345,544.559 322.778,551.486C321.993,552.463 321.43,553.104 321.154,553.366C320.786,553.715 320.473,553.883 320.293,553.967C318.796,554.667 317.78,554.031 317.185,553.462C316.881,553.17 315.788,552.077 316.603,550.212C316.968,549.377 319.61,545.272 325.579,536.559C331.523,527.882 331.429,528.496 337.093,519.754C340.232,514.909 343.246,509.984 346.358,505.121C347.178,503.839 348.884,503.465 350.166,504.285C350.465,504.476 350.715,504.716 350.912,504.988ZM692.82,490.185C694.164,487.644 695.509,485.1 696.848,482.553C694.678,483.392 691.867,484.461 689.663,485.239C690.349,485.305 690.838,485.581 691.017,485.712C691.452,486.03 691.787,486.452 691.99,487.001C692.354,487.984 692.629,489.048 692.82,490.185ZM733.915,482.962C736.588,475.371 739.501,467.91 742.86,460.712C745.679,454.67 751.259,446.965 755.277,439.212C756.031,437.757 756.732,436.302 757.341,434.859C752.244,440.621 746.194,447.638 746.125,447.714C745.647,448.238 745.169,448.759 744.689,449.275C734.843,473.741 722.915,497.728 706.061,517.652C702.691,521.635 693.739,532.163 685.555,537.424C683.38,538.823 681.23,539.837 679.209,540.379C675.228,549.865 671.128,559.343 668.039,567.804C666.402,572.285 665.044,576.463 664.166,580.18C666.302,577.899 668.429,575.611 670.525,573.294C679.156,563.753 686.541,554.62 693.558,543.931C706.422,524.336 719.678,505.082 732.291,485.327C732.696,484.692 733.25,483.893 733.915,482.962ZM764.164,423.349C764.424,415.726 764.441,408.029 764.066,400.159C764.021,399.212 763.955,397.027 763.885,394.463C761.208,403.017 757.903,413.688 755.514,420.397C753.867,425.025 752.184,429.688 750.446,434.359C754.385,429.871 758.52,425.222 759.938,423.849C760.997,422.825 761.958,422.691 762.177,422.678C763.046,422.625 763.683,422.927 764.164,423.349ZM794.015,435.954C794.464,436.232 795.191,436.786 795.363,438.122C795.572,439.749 795.688,441.458 795.719,443.238C799.723,434.904 803.346,426.415 806.438,417.969C806.578,417.588 809.391,405.823 812.001,397.854C813.308,393.86 814.73,390.752 815.681,389.784C816.865,388.581 818.031,388.389 819.007,388.513C819.686,388.599 820.364,388.887 820.979,389.396C827.773,369.271 832.667,347.33 835.813,326.427C835.953,325.494 836.533,319.907 836.728,314.742C832.436,324.43 826.133,339.767 824.93,342.771C812.751,373.187 802.027,404.174 794.015,435.954ZM704.763,479.295C700.606,487.302 696.34,495.259 692.178,503.225C690.818,510.087 688.135,518.051 684.898,526.401C684.057,528.57 683.179,530.766 682.277,532.976C683.436,532.251 684.613,531.4 685.789,530.471C692.51,525.16 699.111,517.329 701.851,514.09C715.518,497.935 725.855,479.041 734.47,459.412C725.571,467.479 715.911,474.223 704.763,479.295ZM700.77,475.034C704.42,467.969 707.972,460.861 711.278,453.668C710.018,455.669 708.708,457.641 707.329,459.575C705.177,462.596 697.614,471.739 692.574,478.188C695.384,477.151 697.987,476.189 698.179,476.112C699.053,475.763 699.916,475.404 700.77,475.034Z"/>
    </g>
</svg>
