<?xml version="1.0" encoding="UTF-8" standalone="no"?>
<!DOCTYPE svg PUBLIC "-//W3C//DTD SVG 1.1//EN" "http://www.w3.org/Graphics/SVG/1.1/DTD/svg11.dtd">
<svg width="100%" height="100%" viewBox="0 0 1080 1080" version="1.1" xmlns="http://www.w3.org/2000/svg" xmlns:xlink="http://www.w3.org/1999/xlink" xml:space="preserve" xmlns:serif="http://www.serif.com/" style="fill-rule:evenodd;clip-rule:evenodd;stroke-linejoin:round;stroke-miterlimit:2;">
    <g transform="matrix(1,0,0,0.816164,0,95.4152)">
        <path d="M56.862,377.321C56.83,376.729 56.814,376.132 56.814,375.53C56.814,360.653 66.672,348.574 78.814,348.574C107.432,348.574 138.037,357.217 166.328,360.498C210.71,365.644 255.16,368.406 299.641,372.578C332.147,375.626 364.697,379.32 397.122,383.062C421.487,385.874 445.714,388.33 470.134,390.479C483.659,391.669 497.199,393.91 510.613,395.977C519.52,397.349 535.668,398.387 547.958,402.17C556.469,404.79 563.601,408.907 568.394,413.7C572.147,417.454 576.765,424.778 577.352,436.443C577.794,445.241 574.745,463.199 574.053,467.373C569.467,495.043 570.353,526.037 570.353,554.063C570.353,579.13 571.922,603.962 573.437,628.931C574.167,632.08 577.328,646.029 577.305,651.388C577.257,662.466 573.261,670.11 568.567,674.882C566.087,677.403 559.73,682.046 549.856,681.71C541.27,681.418 522.729,677.236 517.567,676.707C495.253,674.423 472.109,676.117 449.664,676.117C360.514,676.117 271.357,676.003 182.337,672.59C149.078,671.314 116.139,672.534 82.94,669.072C78.229,668.581 69.59,669.563 62.76,669.126C56.843,668.746 51.665,667.41 48.003,665.579C43.312,663.233 36.952,658.16 34.639,646.301C33.667,641.32 35.629,620.298 35.631,620.282C37.781,605.779 37.573,590.663 38.739,576.038C43.323,518.533 42.936,460.068 42.936,402.401C42.936,391.015 48.709,381.269 56.862,377.321ZM86.936,402.722C86.937,462.026 87.244,522.144 82.531,581.278C81.642,592.421 81.388,603.813 80.529,615.065C83.04,615.117 85.252,615.207 86.671,615.355C119.083,618.735 151.243,617.46 183.713,618.705C272.275,622.101 360.973,622.206 449.664,622.206C473.32,622.206 497.713,620.576 521.231,622.984C522.569,623.121 525.499,623.561 529.026,624.123C527.624,600.782 526.353,577.519 526.353,554.063C526.353,522.56 525.778,487.748 530.933,456.644C531.027,456.08 531.225,454.762 531.47,453.095C530.609,452.884 529.782,452.702 529.036,452.571C520.152,451.007 510.943,450.363 505.123,449.466C492.483,447.519 479.727,445.373 466.983,444.251C442.236,442.074 417.686,439.584 392.996,436.735C360.827,433.023 328.533,429.355 296.283,426.331C251.539,422.135 206.827,419.346 162.183,414.169C137.882,411.351 111.813,404.121 86.936,402.722Z"/>
    </g>
    <path d="M593.427,684.921C611.094,705.37 622.937,729.73 638.438,751.717C645.597,761.872 653.477,771.439 661.231,781.104C660.709,753.62 659.067,726.208 659.067,698.674C659.067,647.04 674.656,594.914 681.938,543.865C687.275,506.448 686.064,467.028 684.116,429.357C682.701,401.983 680.874,374.431 677.681,347.162C676.802,339.653 675.493,332.292 673.989,324.922C670.905,329.683 668.192,334.414 666.168,337.606C651.74,360.361 634.202,380.767 619.699,403.502C617.658,406.702 613.255,412.307 608.997,418.362C606.918,421.318 604.01,426.435 603.28,427.733C602.109,438.776 592.754,447.391 581.403,447.391C569.261,447.391 559.403,437.533 559.403,425.391C559.403,419.848 561.377,412.442 565.554,404.8C570.617,395.539 579.446,384.789 582.604,379.838C597.086,357.137 614.602,336.765 629.008,314.045C633.011,307.731 639.498,296.322 646.294,288.301C651.08,282.653 656.276,278.381 661.069,275.945C663.794,274.56 667.946,273.067 673.636,273.606C675.327,273.767 682.403,275.961 686.626,277.306C690.896,276.516 695.492,277.28 700.434,279.736C702.074,280.552 707.935,283.066 711.205,291.603C711.361,292.01 712.046,294.352 712.625,296.437C713.76,300.527 714.718,304.924 715.607,309.035C717.982,320.011 720.077,330.889 721.383,342.045C724.686,370.259 726.593,398.763 728.057,427.085C730.15,467.549 731.229,509.888 725.497,550.078C718.504,599.101 703.067,649.089 703.067,698.674C703.067,731.4 705.387,763.955 705.387,796.661C705.387,808.142 705.141,819.341 704.161,830.672C703.849,834.275 702.915,838.62 702.915,842.31C702.915,845.525 702.164,852.469 701.184,854.984C699.972,858.094 698.315,860.424 696.711,862.162C692.344,866.893 687.121,869.001 681.545,869.301C676.992,869.545 670.699,868.943 664.451,862.695C654.983,853.228 648.664,837.821 640.851,826.813C628.716,809.714 614.572,794.226 602.477,777.07C587.698,756.108 576.712,732.68 559.759,713.257C555.214,708.05 549.625,693.876 548.617,691.263C541.471,682.624 541.942,669.788 550.028,661.701C558.614,653.116 572.555,653.116 581.141,661.701C584.264,664.825 587.038,669.104 589.218,674.215C590.546,677.328 593.003,683.801 593.427,684.921Z"/>
    <path d="M60.029,445.185C60.187,443.416 62.712,415.171 63.401,410.002C64.576,401.179 69.022,397.103 69.738,396.376C73.106,392.951 78.815,389.443 86.994,388.644C93.899,387.97 111.166,390.497 112.967,390.766C141.585,390.857 169.281,396.863 198.159,396.863C279.018,396.863 359.613,406.923 439.599,416.878C447.26,417.832 485.131,420.656 510.687,425.747C527.164,429.03 539.527,434.83 544.156,439.46C549.408,444.712 551.998,451.064 552.365,458.339C552.53,461.602 551.49,467.938 550.923,471.091C554.47,463.872 558.305,456.234 562.694,450.19C581.625,424.121 601.095,398.778 621.718,373.821C623.346,371.742 625.166,369.57 627.074,367.328C632.009,361.085 636.145,354.197 640.368,347.473C641.615,345.487 642.8,343.293 643.846,341.146C644.467,339.19 645.802,335.023 646.078,334.484C652.426,322.133 663.024,322.167 667.638,322.577C671.93,322.959 676.172,324.475 680.068,327.835C681.404,328.987 687.736,333.26 687.736,344.827C687.736,346.498 687.623,348.185 687.403,349.882C692.667,351.62 697.245,355.32 700.126,362.078C700.925,363.954 701.742,366.544 701.888,369.86C701.971,371.74 701.179,377.068 700.53,379.303C699.676,382.24 698.69,385.14 697.63,388.009C697.134,389.354 696.608,390.716 696.057,392.086C699.431,395.591 701.656,399.964 702.274,405.356C702.665,408.767 702.391,413.51 699.993,418.762C699.76,419.273 699.472,419.826 699.143,420.407C702.928,421.656 705.41,424.406 705.41,429.468C705.41,430.723 705.251,432.558 704.701,434.757C704.275,436.9 703.67,439.676 703.195,440.817C701.761,444.26 700.114,447.61 698.525,450.984C696.228,455.862 692.436,461.939 688.7,467.214C690.097,470.617 690.817,474.951 689.566,480.143C692.639,483.935 699.041,494.193 691.561,505.924C691.466,506.37 691.353,506.827 691.22,507.294C691.596,520.478 691.134,534.073 689.907,546.921C689.789,548.158 689.659,549.393 689.519,550.625C689.279,574.055 683.946,597.679 678.171,620.558C678.234,621.557 678.296,622.557 678.356,623.557C680.061,651.971 678.659,681.096 677.464,709.532C676.675,728.323 677.867,747.089 676.588,765.867C676.552,766.385 676.265,780.278 676.133,783.051C675.199,802.673 654.934,804.491 654.303,804.496C648.478,804.545 642.275,802.666 636.943,796.849C635.021,794.752 632.743,791.388 631.082,786.777C629.599,782.66 627.703,773.383 626.989,769.758C625.96,768.452 624.552,767.376 623.392,766.156C620.233,762.836 617.355,759.443 615.222,755.903C611.076,749.019 608.956,741.013 605.044,733.962C600.412,725.615 595.731,713.878 591.782,701.66C589.682,702.658 587.813,703.079 586.544,703.361C577.801,705.303 568.371,703.681 562.196,692.145C561.358,690.578 560.353,688.271 559.804,685.163C559.501,683.448 559.358,676.431 559.332,675.053C558.622,670.535 557.509,665.925 556.789,661.33C555.366,652.248 555.473,643.29 555.876,634.336C550.201,634.16 544.481,633.978 538.932,634.438C529.086,635.253 520.709,638.391 511.57,640.812C495.108,645.173 454.959,641.069 438.514,639.532C401.886,636.109 364.128,642.763 327.547,638.883C316.095,637.669 304.729,635.807 293.243,634.984C266.481,633.067 239.424,637.253 212.608,635.008C184.647,632.668 155.539,634.101 127.486,634.101C125.833,634.101 103.419,634.354 98.707,634.163C88.547,633.75 83.862,628.312 83.207,627.658C70.616,615.066 65.103,592.518 61.267,576.097C50.985,532.079 48.609,489.198 60.029,445.185ZM559.956,590.469C560.148,580.127 562.41,569.804 567.512,559.448C567.265,558.042 567.121,556.491 567.116,554.781C563.809,552.032 561.139,548.313 559.874,543.148C559.449,541.413 557.285,534.873 562.502,526.387C562.601,526.226 563.159,525.297 564.293,523.876C564.98,522.653 566.727,519.544 568.474,516.439C568.168,515.039 567.965,513.4 567.965,511.494C567.965,507.299 568.883,502.466 570.67,497.231L549.311,497.231C548.335,507.817 546.981,518.329 545.899,529.128C544.489,543.187 544.294,556.929 542.651,570.888C542.877,573.378 543.72,583.195 543.297,587.083C543.177,588.186 543.002,589.237 542.781,590.238C548.486,590.143 554.268,590.369 559.956,590.469Z"/>
    <path d="M532.621,638.429C533.265,639.144 534.949,640.97 536.329,642.124C537.249,642.893 538.231,643.667 539.258,644.442C539.861,643.176 540.687,642.074 541.696,641.118C543.403,639.502 545.891,637.919 549.866,637.984C552.192,638.022 555.482,638.868 558.759,641.557C561.595,643.883 567.762,651.233 568.504,652.121C574.658,656.38 580.95,663.384 585.765,668.907C587.667,671.089 590.753,672.002 593.595,673.22C597.172,674.753 600.68,676.319 603.61,678.283C608.653,681.664 610.003,688.502 606.622,693.545C603.242,698.588 596.403,699.938 591.36,696.557C588.152,694.407 583.892,693.118 580.092,691.268C575.886,689.22 572.083,686.693 569.181,683.364C568.861,682.996 568.534,682.619 568.199,682.234C568.099,682.321 568.005,682.4 567.919,682.472C565.754,684.299 563.309,685.116 560.638,685.084C558.729,685.061 556.346,684.604 553.934,682.738C553.158,682.138 551.788,680.869 550.583,678.732C545.593,675.574 529.635,665.333 521.667,658.537C514.354,652.3 510.786,645.357 510.786,640.34C510.786,634.269 515.715,629.34 521.786,629.34C527.206,629.34 531.715,633.268 532.621,638.429Z"/>
    <path d="M530.99,434.945C534.436,431.666 547.06,421.401 556.748,415.252C563.295,411.096 569.238,409.119 571.813,409.119C575.015,409.119 577.899,410.491 579.91,412.678C580.906,412.112 581.888,411.517 582.851,410.885C587.928,407.556 594.753,408.975 598.082,414.052C601.411,419.129 599.992,425.953 594.915,429.282C584.811,435.908 572.831,438.787 562.825,444.619C558.119,447.362 553.037,448.77 548.23,451.111C547.662,451.492 544.909,453.328 543.783,453.838C541.26,454.982 538.982,455.106 537.338,454.924C534.606,454.621 532.396,453.482 530.626,451.747C528.943,450.096 527.224,447.63 527.191,443.544C527.169,440.917 530.129,436.247 530.99,434.945ZM530.99,434.945C530.579,435.337 530.298,435.629 530.169,435.802C530.422,435.462 531.222,434.6 531.222,434.6C531.222,434.6 531.137,434.724 530.99,434.945Z"/>
    <path d="M667.833,260.794C668.888,256.39 672.593,253.013 677.165,252.445C678.709,250.196 680.636,249.323 681.695,248.848C685.737,247.035 690.455,246.885 694.627,251.761C695.108,252.324 695.699,253.121 696.224,254.21C698.55,255.284 703.251,261.865 703.251,261.865C703.251,261.865 703.062,261.557 702.975,261.43C706.407,266.412 710.792,277.3 712.478,287.48C713.851,295.769 713.189,303.591 710.644,308.598C707.84,314.112 703.741,315.317 700.439,315.515C696.945,315.726 692.281,314.115 689.146,309.701C687.522,307.413 686.261,304.996 685.268,302.488C685.257,302.532 685.246,302.575 685.236,302.617C685.226,302.658 685.214,302.712 685.203,302.762C684.83,308.497 680.054,313.039 674.226,313.039C671.914,313.039 669.767,312.324 667.995,311.103C667.935,311.297 667.874,311.492 667.812,311.688C667.534,313.166 666.647,317.809 666.349,318.546C664.526,323.047 661.229,324.368 659.72,324.895C655.764,326.278 651.851,325.842 648.291,322.283C642.305,316.297 641.239,306.568 645.995,295.448C651.141,283.414 666.034,263.215 667.833,260.794Z"/>
    <path d="M1058.32,257.166C1056.96,257.77 1047.7,261.909 1045.72,262.703C1039.16,265.338 1033.07,268.692 1026.73,271.929C1009.07,280.942 992.142,292.433 975.779,303.636C944.627,324.965 912.688,345.01 879.746,363.433C848.79,380.744 816.258,403.747 781.545,412.57C775.661,414.065 769.669,410.503 768.174,404.619C766.678,398.735 770.241,392.743 776.125,391.248C809.036,382.883 839.66,360.643 869.008,344.231C901.37,326.133 932.746,306.437 963.35,285.483C980.483,273.753 998.237,261.771 1016.73,252.333C1023.66,248.794 1030.35,245.171 1037.52,242.289C1039.63,241.44 1048.42,237.439 1050.15,236.729C1061.38,232.137 1065.62,246.154 1065.62,246.804C1065.62,251.578 1062.57,255.646 1058.32,257.166ZM1053.36,257.732C1047.88,257.105 1043.62,252.448 1043.62,246.804C1043.62,249.395 1044.44,251.614 1045.9,253.519C1047.17,255.159 1049.33,257.303 1053.36,257.732Z"/>
    <path d="M800.506,590.141C794.435,590.141 789.506,585.212 789.506,579.141C789.506,573.07 794.435,568.141 800.506,568.141C822.108,568.141 845.144,574.507 866.814,576.358C903.189,579.466 940.229,580.472 976.311,586.459C991.298,588.947 1006.44,593.773 1021.69,593.773C1027.76,593.773 1032.69,598.702 1032.69,604.773C1032.69,610.844 1027.76,615.773 1021.69,615.773C1005.25,615.773 988.872,610.845 972.709,608.163C937.199,602.27 900.74,601.337 864.941,598.278C843.877,596.479 821.504,590.141 800.506,590.141Z"/>
    <path d="M758.042,740.732C753.749,736.439 753.749,729.468 758.042,725.175C762.335,720.882 769.305,720.882 773.598,725.175C799.888,751.465 831.966,770.885 859.145,796.383C900.095,834.799 939.329,875.919 978.635,915.225C982.928,919.518 982.928,926.489 978.635,930.782C974.342,935.075 967.372,935.075 963.079,930.782C923.936,891.639 884.872,850.683 844.093,812.427C816.743,786.769 784.497,767.186 758.042,740.732Z"/>
    <path d="M1026.99,377.078C1028.96,375.188 1031.64,374.026 1034.59,374.026C1040.66,374.026 1045.59,378.955 1045.59,385.026C1045.59,389.976 1041.63,394.354 1037.91,396.219C1024.56,402.913 1009.7,406.589 997.483,415.472C988.569,421.957 980.888,430.091 971.739,436.312C940.182,457.768 904.345,472.51 870.658,490.092C868.114,491.419 841.646,507.271 837.757,509.602C835.859,512.909 832.292,515.139 828.209,515.139C822.138,515.139 817.209,510.21 817.209,504.139C817.209,501.71 818.895,496.213 825.044,491.459C834.295,484.305 857.666,472.056 860.479,470.588C893.416,453.398 928.515,439.097 959.369,418.118C968.325,412.029 975.815,404.03 984.541,397.681C997.409,388.321 1012.85,383.997 1026.99,377.078Z"/>
    <path d="M1006.62,746.252C1004.63,745.308 996.012,741.237 994.617,740.715C982.916,736.333 971.24,732.528 959.219,728.976C916.895,716.473 873.358,708.274 830.501,697.949C811.35,693.335 792.985,685.443 774.066,680.713C768.176,679.241 764.59,673.263 766.062,667.374C767.534,661.484 773.512,657.897 779.401,659.37C798.26,664.085 816.564,671.962 835.654,676.561C878.872,686.973 922.771,695.269 965.452,707.878C977.977,711.578 990.14,715.547 1002.33,720.112C1004.8,721.038 1018.07,727.044 1020.72,729.224C1024.7,732.494 1025.11,736.28 1025.11,738.202C1025.11,744.273 1020.19,749.202 1014.11,749.202C1011.22,749.202 1008.59,748.082 1006.62,746.252ZM1003.81,742.044C1003.36,740.848 1003.11,739.553 1003.11,738.202C1003.11,739.33 1003.26,740.642 1003.81,742.044Z"/>
</svg>
