<?xml version="1.0" encoding="UTF-8" standalone="no"?>
<!DOCTYPE svg PUBLIC "-//W3C//DTD SVG 1.1//EN" "http://www.w3.org/Graphics/SVG/1.1/DTD/svg11.dtd">
<svg width="100%" height="100%" viewBox="0 0 1080 1080" version="1.1" xmlns="http://www.w3.org/2000/svg" xmlns:xlink="http://www.w3.org/1999/xlink" xml:space="preserve" xmlns:serif="http://www.serif.com/" style="fill-rule:evenodd;clip-rule:evenodd;stroke-linejoin:round;stroke-miterlimit:2;">
    <g transform="matrix(1.04667,0,0,1.04667,-29.0612,-43.6428)">
        <path d="M81.224,1026.06C62.376,932.877 55.446,832.285 57.398,737.292C58.661,675.852 64.362,614.588 66.193,553.183C68.504,475.675 60.662,398.148 62.86,320.801C64.246,272.028 70.306,133.733 117.903,102.045C161.645,72.924 224.317,76.679 274.403,76.158C376.926,75.09 479.426,78.218 581.947,77.509C622.697,77.228 663.686,76.122 704.35,73.553C798.06,67.631 910.148,54.062 984.241,126.339C1041.09,181.794 1033.32,253.443 1023.13,325.889C1013.74,392.595 1003.64,458.862 999.056,526.14C991.983,629.83 996.518,733.388 991.638,836.972C989.75,877.052 987.512,942.232 964.05,976.693C922.628,1037.54 795.306,1048.95 729.009,1046.38C646.543,1043.16 564.522,1032.45 482.654,1022.58C443.746,1017.88 404.907,1011.65 365.639,1010.96C309.674,1009.97 252.544,1014.05 196.787,1019.03C160.42,1022.28 124.826,1029.34 88.324,1024.41" style="fill:rgb(152,152,152);"/>
        <path d="M83.742,1025.56C84.023,1026.94 83.123,1028.3 81.734,1028.58C80.344,1028.86 78.988,1027.96 78.707,1026.57C69.164,979.888 62.604,931.34 58.651,882.561C54.701,833.805 53.356,784.817 54.237,737.227C54.483,724.914 54.906,712.608 55.44,700.307C57.573,651.215 61.482,602.195 62.915,553.085C63.365,537.636 63.409,522.187 63.213,506.738C62.424,444.679 57.731,382.635 59.462,320.704C60.276,292.126 62.601,232.935 74.058,182.284C82.417,145.333 95.831,112.997 116.231,99.534C134.261,87.615 155.403,81.137 177.576,77.641C209.872,72.549 244.369,73.794 274.376,73.541C294.891,73.326 315.406,73.281 335.92,73.336C417.924,73.559 499.92,75.43 581.929,74.85C602.281,74.703 622.693,74.351 643.094,73.713C663.49,73.075 683.875,72.151 704.18,70.862C760.518,67.283 823.47,60.99 880.892,72.061C919.733,79.55 956.052,94.957 986.193,124.339C1009.25,146.817 1021.88,171.914 1028.09,198.637C1037.37,238.634 1032.14,282.317 1025.97,326.289C1020.36,366.305 1014.49,406.161 1009.71,446.173C1006.53,472.796 1003.83,499.488 1002.01,526.341C999.907,557.371 998.848,588.389 998.261,619.4C996.886,691.995 998.105,764.549 994.711,837.117C993.596,860.953 992.364,893.623 986.645,923.501C982.633,944.462 976.386,964.049 966.589,978.421C949.159,1003.94 916.981,1021.02 880.339,1031.96C828.665,1047.39 768.153,1050.7 728.902,1049.14C695.858,1047.87 662.886,1045.39 629.966,1042.25C580.651,1037.54 531.453,1031.33 482.31,1025.43C458.982,1022.63 435.678,1019.27 412.292,1016.89C396.771,1015.31 381.213,1014.15 365.587,1013.89C343.234,1013.5 320.695,1013.93 298.132,1014.9C264.31,1016.35 230.436,1019.03 197.056,1022.03C175.2,1023.92 153.619,1027.18 131.959,1028.38C117.366,1029.2 102.739,1029.08 87.971,1027.03C86.526,1026.84 85.511,1025.51 85.706,1024.06C85.901,1022.62 87.232,1021.6 88.677,1021.8C103.108,1023.69 117.388,1023.67 131.627,1022.78C153.224,1021.43 174.73,1018.05 196.519,1016.03C229.994,1013.05 263.964,1010.4 297.88,1008.98C320.562,1008.03 343.221,1007.62 365.691,1008.03C381.481,1008.32 397.201,1009.49 412.884,1011.11C436.302,1013.51 459.638,1016.9 482.998,1019.73C532.09,1025.67 581.237,1031.91 630.502,1036.66C663.315,1039.82 696.18,1042.32 729.117,1043.61C767.889,1045.08 827.662,1041.74 878.663,1026.38C913.83,1015.78 944.845,999.525 961.512,974.964C970.874,961.196 976.709,942.399 980.545,922.334C986.199,892.757 987.447,860.421 988.566,836.827C992.006,764.319 990.826,691.821 992.257,619.284C992.87,588.177 993.965,557.063 996.101,525.938C997.951,498.986 1000.68,472.197 1003.9,445.476C1008.72,405.429 1014.62,365.538 1020.28,325.488C1026.38,282.234 1031.68,239.267 1022.58,199.912C1016.63,174.175 1004.48,150.001 982.29,128.34C952.985,99.734 917.631,84.781 879.847,77.469C822.883,66.447 760.419,72.73 704.52,76.244C684.157,77.524 663.714,78.438 643.26,79.065C622.816,79.693 602.361,80.034 581.966,80.169C499.939,80.723 417.927,78.817 335.906,78.576C315.414,78.516 294.923,78.562 274.43,78.774C244.679,79.143 210.461,77.967 178.465,83.184C157.156,86.658 136.841,92.979 119.574,104.556C100.295,117.504 88.472,148.625 80.674,183.767C69.53,233.99 67.06,292.586 66.258,320.898C64.471,382.735 69.116,444.69 69.833,506.657C70.013,522.199 69.945,537.74 69.471,553.281C67.975,602.42 64,651.467 61.803,700.587C61.255,712.838 60.819,725.094 60.559,737.357C59.489,784.747 60.631,833.538 64.367,882.11C68.104,930.685 74.433,979.041 83.742,1025.56Z"/>
    </g>
    <g transform="matrix(0.8798,0,0,0.8798,501.027,101.92)">
        <text x="-380.949px" y="448.502px" style="font-family:'BMYEONSUNG-OTF', 'BM Yeonsung', sans-serif;font-size:218.231px;">PHOTON</text>
        <g transform="matrix(218.231,0,0,218.231,469.935,673.28)">
        </g>
        <text x="-380.949px" y="673.28px" style="font-family:'BMYEONSUNG-OTF', 'BM Yeonsung', sans-serif;font-size:218.231px;">GOBBLER</text>
    </g>
    <g transform="matrix(1,0,0,1,223.986,-14.6375)">
        <g transform="matrix(60,0,0,60,462.821,831.758)">
        </g>
        <text x="168.881px" y="831.758px" style="font-family:'BMYEONSUNG-OTF', 'BM Yeonsung', sans-serif;font-size:60px;">nomnomnom</text>
    </g>
</svg>
